<svg xmlns="http://www.w3.org/2000/svg" width="1639" height="1919" viewBox="0 0 1639 1919"><defs><filter id="panel-shadow" x="-6%" y="-6%" width="118%" height="118%"><feDropShadow dx="0" dy="3" stdDeviation="5" flood-color="#000000" flood-opacity="0.20" /></filter></defs><rect width="100%" height="100%" fill="#000000" /><rect x="733.53" y="225.0" width="280.0" height="290.5" stroke="#22c86f" fill="none" stroke-width="2.0" rx="16.0" ry="16.0" /><rect x="753.53" y="289.0" width="110.0" height="50.0" stroke="#22c86f" fill="#061826" stroke-width="2.5" rx="8.0" ry="8.0" /><rect x="753.53" y="431.0" width="110.0" height="64.5" stroke="#22c86f" fill="#061826" stroke-width="2.5" rx="8.0" ry="8.0" /><rect x="753.53" y="359.0" width="110.0" height="52.0" stroke="#22c86f" fill="#061826" stroke-width="2.5" rx="8.0" ry="8.0" /><rect x="883.53" y="289.0" width="110.0" height="50.0" stroke="#22c86f" fill="#061826" stroke-width="2.5" rx="8.0" ry="8.0" /><rect x="883.53" y="359.0" width="110.0" height="52.0" stroke="#22c86f" fill="#061826" stroke-width="2.5" rx="8.0" ry="8.0" /><rect x="500.2" y="605.5" width="1120.0" height="194.5" stroke="#1d8be8" fill="none" stroke-width="3.0" rx="20.0" ry="20.0" /><rect x="520.2" y="688.5" width="200.0" height="91.5" stroke="transparent" fill="#081626" stroke-width="2.0" rx="12.0" ry="12.0" /><rect x="740.2" y="691.5" width="200.0" height="85.5" stroke="transparent" fill="#081626" stroke-width="2.0" rx="12.0" ry="12.0" /><rect x="960.2" y="689.5" width="200.0" height="89.5" stroke="transparent" fill="#081626" stroke-width="2.0" rx="12.0" ry="12.0" /><rect x="1180.2" y="688.5" width="200.0" height="91.5" stroke="transparent" fill="#081626" stroke-width="2.0" rx="12.0" ry="12.0" /><rect x="1400.2" y="690.5" width="200.0" height="87.5" stroke="transparent" fill="#081626" stroke-width="2.0" rx="12.0" ry="12.0" /><rect x="413.53" y="135.0" width="240.0" height="380.5" stroke="#22c86f" fill="none" stroke-width="2.0" rx="16.0" ry="16.0" /><rect x="433.53" y="199.0" width="200.0" height="87.5" stroke="transparent" fill="#081626" stroke-width="2.0" rx="10.0" ry="10.0" /><rect x="433.53" y="303.5" width="200.0" height="85.5" stroke="transparent" fill="#081626" stroke-width="2.0" rx="10.0" ry="10.0" /><rect x="433.53" y="406.0" width="200.0" height="89.5" stroke="transparent" fill="#081626" stroke-width="2.0" rx="10.0" ry="10.0" /><rect x="550.2" y="890.0" width="460.0" height="390.0" stroke="#bd54d3" fill="none" stroke-width="2.0" rx="16.0" ry="16.0" /><rect x="790.2" y="973.0" width="200.0" height="87.5" stroke="transparent" fill="#081626" stroke-width="2.0" rx="10.0" ry="10.0" /><rect x="570.2" y="973.0" width="200.0" height="83.5" stroke="transparent" fill="#081626" stroke-width="2.0" rx="10.0" ry="10.0" /><rect x="570.2" y="1080.5" width="200.0" height="87.5" stroke="transparent" fill="#081626" stroke-width="2.0" rx="10.0" ry="10.0" /><rect x="790.2" y="1080.5" width="200.0" height="91.5" stroke="transparent" fill="#081626" stroke-width="2.0" rx="10.0" ry="10.0" /><rect x="562.2" y="1188.0" width="436.0" height="80.0" stroke="transparent" fill="#081626" stroke-width="2.0" rx="8.0" ry="8.0" /><rect x="620.2" y="1282.0" width="240.0" height="378.5" stroke="#f4b64e" fill="none" stroke-width="2.0" rx="16.0" ry="16.0" /><rect x="640.2" y="1346.0" width="200.0" height="87.5" stroke="transparent" fill="#081626" stroke-width="2.0" rx="10.0" ry="10.0" /><rect x="640.2" y="1447.5" width="200.0" height="87.5" stroke="transparent" fill="#081626" stroke-width="2.0" rx="10.0" ry="10.0" /><rect x="640.2" y="1549.0" width="200.0" height="91.5" stroke="transparent" fill="#081626" stroke-width="2.0" rx="10.0" ry="10.0" /><rect x="18.0" y="135.0" width="1603.0" height="1766.0" stroke="#5c6265" fill="none" stroke-width="2.0" rx="29.0" ry="29.0" /><polygon points="160.0,1750.5 292.0,1825.5 160.0,1900.5 28.0,1825.5" stroke="#22c86f" fill="#052515" stroke-width="3.0" stroke-linejoin="round" stroke-linecap="round" /><rect x="270.2" y="1112.0" width="200.0" height="80.0" stroke="transparent" fill="#081626" stroke-width="2.5" rx="12.0" ry="12.0" /><rect x="23.5" y="31.0" width="11.0" height="47.0" stroke="#bd54d3" fill="#bd54d3" stroke-width="2.0" rx="12.0" ry="12.0" /><rect x="600.0" y="27.0" width="518.0" height="72.0" stroke="#124238" fill="#124238" stroke-width="2.0" rx="16.0" ry="16.0" /><ellipse cx="1368.5" cy="145.5" rx="2.5" ry="2.5" stroke="#7ee3d6" fill="#7ee3d6" stroke-width="1.0" /><ellipse cx="1378.5" cy="153.5" rx="2.5" ry="2.5" stroke="#f4f0ee" fill="#f4f0ee" stroke-width="1.0" /><ellipse cx="1368.5" cy="161.5" rx="2.5" ry="2.5" stroke="#bd54d3" fill="#bd54d3" stroke-width="1.0" /><ellipse cx="1378.5" cy="169.5" rx="2.5" ry="2.5" stroke="#f4f0ee" fill="#f4f0ee" stroke-width="1.0" /><ellipse cx="1388.5" cy="145.5" rx="2.5" ry="2.5" stroke="#f4f0ee" fill="#f4f0ee" stroke-width="1.0" /><ellipse cx="1398.5" cy="153.5" rx="2.5" ry="2.5" stroke="#ff7ab6" fill="#ff7ab6" stroke-width="1.0" /><ellipse cx="1388.5" cy="161.5" rx="2.5" ry="2.5" stroke="#f4f0ee" fill="#f4f0ee" stroke-width="1.0" /><ellipse cx="1398.5" cy="169.5" rx="2.5" ry="2.5" stroke="#22c86f" fill="#22c86f" stroke-width="1.0" /><polyline points="863.53,314.0 864.0,304.0 864.0,216.0 664.0,216.0 664.0,528.0 488.0,528.0 488.0,736.0 512.0,736.0 520.2,734.25" stroke="#1d8be8" fill="none" stroke-width="2.0" stroke-linejoin="round" stroke-linecap="round" /><polyline points="508.27998784836353,744.9230178630431 520.2,734.25 504.9613926598487,729.3730289797164" stroke="#1d8be8" fill="none" stroke-width="2.0" stroke-linejoin="round" stroke-linecap="round" /><polyline points="863.53,463.25 872.0,464.0 872.0,528.0 488.0,528.0 488.0,736.0 512.0,736.0 520.2,734.25" stroke="#1d8be8" fill="none" stroke-width="2.0" stroke-linejoin="round" stroke-linecap="round" /><polyline points="508.27998784836353,744.9230178630431 520.2,734.25 504.9613926598487,729.3730289797164" stroke="#1d8be8" fill="none" stroke-width="2.0" stroke-linejoin="round" stroke-linecap="round" /><polyline points="863.53,385.0 856.0,384.0 664.0,384.0 664.0,528.0 488.0,528.0 488.0,736.0 512.0,736.0 520.2,734.25" stroke="#1d8be8" fill="none" stroke-width="2.0" stroke-linejoin="round" stroke-linecap="round" /><polyline points="508.27998784836353,744.9230178630431 520.2,734.25 504.9613926598487,729.3730289797164" stroke="#1d8be8" fill="none" stroke-width="2.0" stroke-linejoin="round" stroke-linecap="round" /><polyline points="993.53,314.0 1000.0,312.0 1024.0,312.0 1024.0,528.0 488.0,528.0 488.0,736.0 512.0,736.0 520.2,734.25" stroke="#1d8be8" fill="none" stroke-width="2.0" stroke-linejoin="round" stroke-linecap="round" /><polyline points="508.27998784836353,744.9230178630431 520.2,734.25 504.9613926598487,729.3730289797164" stroke="#1d8be8" fill="none" stroke-width="2.0" stroke-linejoin="round" stroke-linecap="round" /><polyline points="993.53,385.0 1000.0,384.0 1024.0,384.0 1024.0,528.0 488.0,528.0 488.0,736.0 512.0,736.0 520.2,734.25" stroke="#1d8be8" fill="none" stroke-width="2.0" stroke-linejoin="round" stroke-linecap="round" /><polyline points="508.27998784836353,744.9230178630431 520.2,734.25 504.9613926598487,729.3730289797164" stroke="#1d8be8" fill="none" stroke-width="2.0" stroke-linejoin="round" stroke-linecap="round" /><polyline points="720.2,734.25 728.0,736.0 736.0,736.0 740.2,734.25" stroke="#1d8be8" fill="none" stroke-width="2.0" stroke-linejoin="round" stroke-linecap="round" /><polyline points="730.4407021945684,746.9289631415545 740.2,734.25 724.325254344184,732.2518883006318" stroke="#1d8be8" fill="none" stroke-width="2.0" stroke-linejoin="round" stroke-linecap="round" /><polyline points="940.2,734.25 952.0,736.0 960.2,734.25" stroke="#1d8be8" fill="none" stroke-width="2.0" stroke-linejoin="round" stroke-linecap="round" /><polyline points="948.2799878483635,744.9230178630431 960.2,734.25 944.9613926598487,729.3730289797164" stroke="#1d8be8" fill="none" stroke-width="2.0" stroke-linejoin="round" stroke-linecap="round" /><polyline points="1160.2,734.25 1168.0,736.0 1176.0,736.0 1180.2,734.25" stroke="#1d8be8" fill="none" stroke-width="2.0" stroke-linejoin="round" stroke-linecap="round" /><polyline points="1170.4407021945685,746.9289631415545 1180.2,734.25 1164.325254344184,732.2518883006318" stroke="#1d8be8" fill="none" stroke-width="2.0" stroke-linejoin="round" stroke-linecap="round" /><polyline points="1380.2,734.25 1392.0,736.0 1400.2,734.25" stroke="#1d8be8" fill="none" stroke-width="2.0" stroke-linejoin="round" stroke-linecap="round" /><polyline points="1388.2799878483636,744.9230178630431 1400.2,734.25 1384.9613926598488,729.3730289797164" stroke="#1d8be8" fill="none" stroke-width="2.0" stroke-linejoin="round" stroke-linecap="round" /><polyline points="1600.2,734.25 1608.0,736.0 1632.0,736.0 1632.0,808.0 16.0,808.0 16.0,1824.0 24.0,1824.0 28.0,1825.5" stroke="#1d8be8" fill="none" stroke-width="2.0" stroke-linejoin="round" stroke-linecap="round" /><polyline points="12.207509074514814,1828.0685074203645 28.0,1825.5 17.79042952432625,1813.1807195542008" stroke="#1d8be8" fill="none" stroke-width="2.0" stroke-linejoin="round" stroke-linecap="round" /><polyline points="292.0,1825.5 296.0,1824.0 304.0,1824.0 304.0,1736.0 256.0,1736.0 256.0,1152.0 270.2,1152.0" stroke="#1d8be8" fill="none" stroke-width="2.0" stroke-linejoin="round" stroke-linecap="round" /><polyline points="256.3148931251576,1159.9500822054997 270.2,1152.0 256.3148931251576,1144.0499177945003" stroke="#1d8be8" fill="none" stroke-width="2.0" stroke-linejoin="round" stroke-linecap="round" /><rect x="228.0" y="1499.04" width="80.0" height="24.0" stroke="#000000" fill="#000000" stroke-width="0.0" rx="6.0" ry="6.0" /><text fill="#f4f0ee" font-size="12px" font-family="&quot;Helvetica Neue&quot;, &quot;Helvetica&quot;, &quot;Arial&quot;, sans-serif" text-anchor="middle" dominant-baseline="hanging"><tspan x="268.0" y="1505.04">Yes</tspan></text><polyline points="28.0,1825.5 24.0,1824.0 16.0,1824.0 16.0,808.0 624.0,808.0 624.0,792.0 620.2,780.0" stroke="#1d8be8" fill="none" stroke-width="2.0" stroke-linejoin="round" stroke-linecap="round" /><polyline points="631.9709476458227,790.8371948178162 620.2,780.0 616.8126495227976,795.6373225567742" stroke="#1d8be8" fill="none" stroke-width="2.0" stroke-linejoin="round" stroke-linecap="round" /><rect x="-12.0" y="991.84" width="80.0" height="24.0" stroke="#000000" fill="#000000" stroke-width="0.0" rx="6.0" ry="6.0" /><text fill="#f4f0ee" font-size="12px" font-family="&quot;Helvetica Neue&quot;, &quot;Helvetica&quot;, &quot;Arial&quot;, sans-serif" text-anchor="middle" dominant-baseline="hanging"><tspan x="28.0" y="997.84">No</tspan></text><polyline points="470.2,1152.0 480.0,1152.0 480.0,1392.0 632.0,1392.0 640.2,1389.75" stroke="#1d8be8" fill="none" stroke-width="2.0" stroke-linejoin="round" stroke-linecap="round" /><polyline points="628.9134891365057,1401.0908409092194 640.2,1389.75 624.7061504268164,1385.7574287227958" stroke="#1d8be8" fill="none" stroke-width="2.0" stroke-linejoin="round" stroke-linecap="round" /><polyline points="633.53,242.75 640.0,240.0 664.0,240.0 664.0,528.0 488.0,528.0 488.0,808.0 624.0,808.0 624.0,792.0 620.2,780.0" stroke="#1d8be8" fill="none" stroke-width="2.0" stroke-linejoin="round" stroke-linecap="round" /><polyline points="631.9709476458227,790.8371948178162 620.2,780.0 616.8126495227976,795.6373225567742" stroke="#1d8be8" fill="none" stroke-width="2.0" stroke-linejoin="round" stroke-linecap="round" /><polyline points="1060.2,779.0 1064.0,784.0 1064.0,808.0 536.0,808.0 536.0,1072.0 672.0,1072.0 670.2,1080.5" stroke="#1d8be8" fill="none" stroke-width="2.0" stroke-linejoin="round" stroke-linecap="round" /><polyline points="665.2989796319453,1065.269110355862 670.2,1080.5 680.8541878223617,1068.5631544432442" stroke="#1d8be8" fill="none" stroke-width="2.0" stroke-linejoin="round" stroke-linecap="round" /><polyline points="1280.2,780.0 1280.0,792.0 1280.0,1080.0 896.0,1080.0 890.2,1080.5" stroke="#1d8be8" fill="none" stroke-width="2.0" stroke-linejoin="round" stroke-linecap="round" /><polyline points="903.3509788165217,1071.3867263748202 890.2,1080.5 904.7166175777428,1087.2281360049847" stroke="#1d8be8" fill="none" stroke-width="2.0" stroke-linejoin="round" stroke-linecap="round" /><polyline points="990.2,1126.25 1000.0,1128.0 1024.0,1128.0 1024.0,1672.0 608.0,1672.0 608.0,1392.0 632.0,1392.0 640.2,1389.75" stroke="#1d8be8" fill="none" stroke-width="2.0" stroke-linejoin="round" stroke-linecap="round" /><polyline points="628.9134891365057,1401.0908409092194 640.2,1389.75 624.7061504268164,1385.7574287227958" stroke="#1d8be8" fill="none" stroke-width="2.0" stroke-linejoin="round" stroke-linecap="round" /><polyline points="640.2,1389.75 632.0,1392.0 304.0,1392.0 304.0,1912.0 160.0,1912.0 160.0,1900.5" stroke="#1d8be8" fill="none" stroke-width="2.0" stroke-linejoin="round" stroke-linecap="round" /><polyline points="167.9500822054998,1914.3851068748424 160.0,1900.5 152.0499177945002,1914.3851068748424" stroke="#1d8be8" fill="none" stroke-width="2.0" stroke-linejoin="round" stroke-linecap="round" /><polyline points="533.53,286.5 536.0,296.0 533.53,303.5" stroke="#1d8be8" fill="none" stroke-width="2.0" stroke-linejoin="round" stroke-linecap="round" /><polyline points="530.3222273295834,287.8248542432637 533.53,303.5 545.4244724569023,292.7985269718608" stroke="#1d8be8" fill="none" stroke-width="2.0" stroke-linejoin="round" stroke-linecap="round" /><polyline points="533.53,389.0 536.0,400.0 533.53,406.0" stroke="#1d8be8" fill="none" stroke-width="2.0" stroke-linejoin="round" stroke-linecap="round" /><polyline points="531.4641547925825,390.13392664901016 533.53,406.0 546.1671960353445,396.18667862728057" stroke="#1d8be8" fill="none" stroke-width="2.0" stroke-linejoin="round" stroke-linecap="round" /><polyline points="740.2,1433.5 744.0,1440.0 740.2,1447.5" stroke="#1d8be8" fill="none" stroke-width="2.0" stroke-linejoin="round" stroke-linecap="round" /><polyline points="739.3838217074033,1431.5208306537952 740.2,1447.5 753.5673372067781,1438.7071451734782" stroke="#1d8be8" fill="none" stroke-width="2.0" stroke-linejoin="round" stroke-linecap="round" /><polyline points="740.2,1535.0 744.0,1544.0 740.2,1549.0" stroke="#1d8be8" fill="none" stroke-width="2.0" stroke-linejoin="round" stroke-linecap="round" /><polyline points="742.2720909456925,1533.1347411268275 740.2,1549.0 754.9312007300721,1542.7556645629559" stroke="#1d8be8" fill="none" stroke-width="2.0" stroke-linejoin="round" stroke-linecap="round" /><polyline points="670.2,1056.5 672.0,1048.0 672.0,880.0 1024.0,880.0 1024.0,1288.0 784.0,1288.0 784.0,1192.0 780.2,1188.0" stroke="#1d8be8" fill="none" stroke-width="2.0" stroke-linejoin="round" stroke-linecap="round" /><polyline points="795.5271649846921,1192.5910797784431 780.2,1188.0 783.9995547926593,1203.5423094608743" stroke="#1d8be8" fill="none" stroke-width="2.0" stroke-linejoin="round" stroke-linecap="round" /><text fill="#f4f0ee" font-size="22px" font-family="&quot;Helvetica Neue&quot;, &quot;Helvetica&quot;, &quot;Arial&quot;, sans-serif" text-anchor="start" dominant-baseline="hanging" font-weight="bold"><tspan x="745.53" y="246.0">Telemetry &amp; Knowledge Ingest</tspan></text><ellipse cx="815.53" cy="303.25" rx="13.0" ry="3.75" stroke="#f4f0ee" fill="#22c86f" stroke-width="2" /><polyline points="802.53,303.25 802.53,311.25" stroke="#f4f0ee" fill="none" stroke-width="2" stroke-linejoin="round" stroke-linecap="round" /><polyline points="828.53,303.25 828.53,311.25" stroke="#f4f0ee" fill="none" stroke-width="2" stroke-linejoin="round" stroke-linecap="round" /><ellipse cx="815.53" cy="311.25" rx="13.0" ry="3.75" stroke="#f4f0ee" fill="#22c86f" stroke-width="2" /><polyline points="802.53,311.25 802.53,319.25" stroke="#f4f0ee" fill="none" stroke-width="2" stroke-linejoin="round" stroke-linecap="round" /><polyline points="828.53,311.25 828.53,319.25" stroke="#f4f0ee" fill="none" stroke-width="2" stroke-linejoin="round" stroke-linecap="round" /><ellipse cx="815.53" cy="319.25" rx="13.0" ry="3.75" stroke="#f4f0ee" fill="#22c86f" stroke-width="2" /><text fill="#f4f0ee" font-size="13px" font-family="&quot;Helvetica Neue&quot;, &quot;Helvetica&quot;, &quot;Arial&quot;, sans-serif" text-anchor="middle" dominant-baseline="hanging"><tspan x="808.53" y="324.5">Vector Streams</tspan></text><rect x="808.53" y="449.0" width="14.0" height="14.0" stroke="#f4f0ee" fill="#22c86f" stroke-width="2" rx="4" ry="4" /><polyline points="802.53,451.0 808.53,451.0" stroke="#f4f0ee" fill="none" stroke-width="2" stroke-linejoin="round" stroke-linecap="round" /><polyline points="822.53,451.0 828.53,451.0" stroke="#f4f0ee" fill="none" stroke-width="2" stroke-linejoin="round" stroke-linecap="round" /><polyline points="810.53,443.0 810.53,449.0" stroke="#f4f0ee" fill="none" stroke-width="2" stroke-linejoin="round" stroke-linecap="round" /><polyline points="810.53,463.0 810.53,469.0" stroke="#f4f0ee" fill="none" stroke-width="2" stroke-linejoin="round" stroke-linecap="round" /><polyline points="802.53,456.0 808.53,456.0" stroke="#f4f0ee" fill="none" stroke-width="2" stroke-linejoin="round" stroke-linecap="round" /><polyline points="822.53,456.0 828.53,456.0" stroke="#f4f0ee" fill="none" stroke-width="2" stroke-linejoin="round" stroke-linecap="round" /><polyline points="815.53,443.0 815.53,449.0" stroke="#f4f0ee" fill="none" stroke-width="2" stroke-linejoin="round" stroke-linecap="round" /><polyline points="815.53,463.0 815.53,469.0" stroke="#f4f0ee" fill="none" stroke-width="2" stroke-linejoin="round" stroke-linecap="round" /><polyline points="802.53,461.0 808.53,461.0" stroke="#f4f0ee" fill="none" stroke-width="2" stroke-linejoin="round" stroke-linecap="round" /><polyline points="822.53,461.0 828.53,461.0" stroke="#f4f0ee" fill="none" stroke-width="2" stroke-linejoin="round" stroke-linecap="round" /><polyline points="820.53,443.0 820.53,449.0" stroke="#f4f0ee" fill="none" stroke-width="2" stroke-linejoin="round" stroke-linecap="round" /><polyline points="820.53,463.0 820.53,469.0" stroke="#f4f0ee" fill="none" stroke-width="2" stroke-linejoin="round" stroke-linecap="round" /><text fill="#f4f0ee" font-size="13px" font-family="&quot;Helvetica Neue&quot;, &quot;Helvetica&quot;, &quot;Arial&quot;, sans-serif" text-anchor="middle" dominant-baseline="hanging"><tspan x="808.53" y="465.625">LLM Context</tspan><tspan x="808.53" y="481.875">Caches</tspan></text><ellipse cx="805.03" cy="372.5" rx="3.5" ry="3.5" stroke="#f4f0ee" fill="#22c86f" stroke-width="2" /><ellipse cx="805.03" cy="390.5" rx="3.5" ry="3.5" stroke="#f4f0ee" fill="#22c86f" stroke-width="2" /><ellipse cx="822.03" cy="372.5" rx="3.5" ry="3.5" stroke="#f4f0ee" fill="#22c86f" stroke-width="2" /><polyline points="805.03,376.0 805.03,387.0" stroke="#f4f0ee" fill="none" stroke-width="3" stroke-linejoin="round" stroke-linecap="round" /><polyline points="805.03,372.5 818.53,372.5" stroke="#f4f0ee" fill="none" stroke-width="3" stroke-linejoin="round" stroke-linecap="round" /><text fill="#f4f0ee" font-size="13px" font-family="&quot;Helvetica Neue&quot;, &quot;Helvetica&quot;, &quot;Arial&quot;, sans-serif" text-anchor="middle" dominant-baseline="hanging"><tspan x="808.53" y="395.5">GitOps State</tspan></text><ellipse cx="935.03" cy="302.0" rx="4.5" ry="4.5" stroke="#f4f0ee" fill="#22c86f" stroke-width="2" /><polyline points="929.03,309.0 929.03,320.0 940.03,320.0 940.03,309.0" stroke="#f4f0ee" fill="none" stroke-width="2" stroke-linejoin="round" stroke-linecap="round" /><ellipse cx="946.03" cy="302.0" rx="4.5" ry="4.5" stroke="#f4f0ee" fill="#22c86f" stroke-width="2" /><polyline points="940.03,309.0 940.03,320.0 951.03,320.0 951.03,309.0" stroke="#f4f0ee" fill="none" stroke-width="2" stroke-linejoin="round" stroke-linecap="round" /><text fill="#f4f0ee" font-size="13px" font-family="&quot;Helvetica Neue&quot;, &quot;Helvetica&quot;, &quot;Arial&quot;, sans-serif" text-anchor="middle" dominant-baseline="hanging"><tspan x="938.53" y="324.5">User Sessions</tspan></text><ellipse cx="933.53" cy="383.0" rx="3.5" ry="3.5" stroke="#f4f0ee" fill="#22c86f" stroke-width="2" /><ellipse cx="952.53" cy="369.0" rx="3.5" ry="3.5" stroke="#f4f0ee" fill="#22c86f" stroke-width="2" /><ellipse cx="952.53" cy="397.0" rx="3.5" ry="3.5" stroke="#f4f0ee" fill="#22c86f" stroke-width="2" /><polyline points="937.03,383.0 949.03,372.5" stroke="#f4f0ee" fill="none" stroke-width="2" stroke-linejoin="round" stroke-linecap="round" /><polyline points="937.03,383.0 949.03,393.5" stroke="#f4f0ee" fill="none" stroke-width="2" stroke-linejoin="round" stroke-linecap="round" /><text fill="#f4f0ee" font-size="13px" font-family="&quot;Helvetica Neue&quot;, &quot;Helvetica&quot;, &quot;Arial&quot;, sans-serif" text-anchor="middle" dominant-baseline="hanging"><tspan x="938.53" y="395.5">Graph DB Nodes</tspan></text><text fill="#f4f0ee" font-size="22px" font-family="&quot;Helvetica Neue&quot;, &quot;Helvetica&quot;, &quot;Arial&quot;, sans-serif" text-anchor="start" dominant-baseline="hanging" font-weight="bold"><tspan x="512.2" y="626.5">Orchestration &amp; Synchronization Core</tspan></text><text fill="#cfc7c5" font-size="11px" font-family="&quot;Helvetica Neue&quot;, &quot;Helvetica&quot;, &quot;Arial&quot;, sans-serif" text-anchor="start" dominant-baseline="hanging"><tspan x="512.2" y="661.5">(Asynchronous distributed pipeline)</tspan></text><polyline points="533.8,710.9 539.4,710.9 542.5999999999999,702.1 546.1999999999999,719.3000000000001 549.4,705.3000000000001 552.5999999999999,710.9 559.4,710.9" stroke="#7ee3d6" fill="none" stroke-width="3" stroke-linejoin="round" stroke-linecap="round" /><text fill="#f4f0ee" font-size="18px" font-family="&quot;Helvetica Neue&quot;, &quot;Helvetica&quot;, &quot;Arial&quot;, sans-serif" text-anchor="start" dominant-baseline="hanging" font-weight="bold"><tspan x="572.2" y="696.25">Ingest &amp;</tspan><tspan x="572.2" y="718.75">Decouple</tspan></text><text fill="#f4f0ee" font-size="9px" font-family="&quot;Helvetica Neue&quot;, &quot;Helvetica&quot;, &quot;Arial&quot;, sans-serif" text-anchor="start" dominant-baseline="hanging"><tspan x="532.2" y="746.125">Poll memory queues</tspan><tspan x="532.2" y="757.375">Parse raw markdown...</tspan></text><ellipse cx="766.6" cy="713.9000000000001" rx="7.2" ry="7.2" stroke="#7ee3d6" fill="#7ee3d6" stroke-width="2" /><text fill="#f4f0ee" font-size="18px" font-family="&quot;Helvetica Neue&quot;, &quot;Helvetica&quot;, &quot;Arial&quot;, sans-serif" text-anchor="start" dominant-baseline="hanging" font-weight="bold"><tspan x="792.2" y="697.25">Privacy</tspan><tspan x="792.2" y="719.75">Guardrail</tspan></text><text fill="#f4f0ee" font-size="9px" font-family="&quot;Helvetica Neue&quot;, &quot;Helvetica&quot;, &quot;Arial&quot;, sans-serif" text-anchor="start" dominant-baseline="hanging"><tspan x="752.2" y="744.125">Regex &amp; NER scrubbing</tspan><tspan x="752.2" y="755.375">Token redactor...</tspan></text><rect x="974.6" y="697.5" width="22.4" height="4.0" stroke="#f4f0ee" fill="#7ee3d6" stroke-width="1.5" rx="3" ry="3" /><rect x="977.0" y="703.1" width="17.6" height="4.0" stroke="#f4f0ee" fill="#7ee3d6" stroke-width="1.5" rx="3" ry="3" /><rect x="979.4" y="708.7" width="12.8" height="4.0" stroke="#f4f0ee" fill="#7ee3d6" stroke-width="1.5" rx="3" ry="3" /><text fill="#f4f0ee" font-size="18px" font-family="&quot;Helvetica Neue&quot;, &quot;Helvetica&quot;, &quot;Arial&quot;, sans-serif" text-anchor="start" dominant-baseline="hanging" font-weight="bold"><tspan x="1012.2" y="697.25">Vector</tspan><tspan x="1012.2" y="719.75">Embedding</tspan></text><text fill="#f4f0ee" font-size="9px" font-family="&quot;Helvetica Neue&quot;, &quot;Helvetica&quot;, &quot;Arial&quot;, sans-serif" text-anchor="start" dominant-baseline="hanging"><tspan x="972.2" y="746.125">Chunk long forms</tspan><tspan x="972.2" y="757.375">Generate embeddings...</tspan></text><polyline points="1193.8,710.9 1201.8,710.9" stroke="#f4f0ee" fill="none" stroke-width="3" stroke-linejoin="round" stroke-linecap="round" /><ellipse cx="1205.8" cy="710.9" rx="5.2" ry="4.8" stroke="#f4f0ee" fill="#7ee3d6" stroke-width="3" /><polyline points="1211.0,710.9 1219.4,710.9" stroke="#f4f0ee" fill="none" stroke-width="3" stroke-linejoin="round" stroke-linecap="round" /><text fill="#f4f0ee" font-size="18px" font-family="&quot;Helvetica Neue&quot;, &quot;Helvetica&quot;, &quot;Arial&quot;, sans-serif" text-anchor="start" dominant-baseline="hanging" font-weight="bold"><tspan x="1232.2" y="707.5">Graph Stitching</tspan></text><text fill="#f4f0ee" font-size="9px" font-family="&quot;Helvetica Neue&quot;, &quot;Helvetica&quot;, &quot;Arial&quot;, sans-serif" text-anchor="start" dominant-baseline="hanging"><tspan x="1192.2" y="746.125">Extract entities</tspan><tspan x="1192.2" y="757.375">Map dependencies...</tspan></text><rect x="1419.4" y="710.5" width="16.0" height="12.0" stroke="#f4f0ee" fill="#7ee3d6" stroke-width="2" rx="6" ry="6" /><polyline points="1422.6,710.5 1422.6,704.1 1432.1999999999998,704.1 1432.1999999999998,710.5" stroke="#f4f0ee" fill="none" stroke-width="3" stroke-linejoin="round" stroke-linecap="round" /><ellipse cx="1427.3999999999999" cy="716.1" rx="1.6" ry="1.6" stroke="#f4f0ee" fill="#f4f0ee" stroke-width="1" /><text fill="#f4f0ee" font-size="18px" font-family="&quot;Helvetica Neue&quot;, &quot;Helvetica&quot;, &quot;Arial&quot;, sans-serif" text-anchor="start" dominant-baseline="hanging" font-weight="bold"><tspan x="1452.2" y="696.25">Consensus</tspan><tspan x="1452.2" y="718.75">Lock</tspan></text><text fill="#f4f0ee" font-size="9px" font-family="&quot;Helvetica Neue&quot;, &quot;Helvetica&quot;, &quot;Arial&quot;, sans-serif" text-anchor="start" dominant-baseline="hanging"><tspan x="1412.2" y="744.125">Raft protocol tick</tspan><tspan x="1412.2" y="755.375">Resolve delta drift...</tspan></text><text fill="#f4f0ee" font-size="22px" font-family="&quot;Helvetica Neue&quot;, &quot;Helvetica&quot;, &quot;Arial&quot;, sans-serif" text-anchor="start" dominant-baseline="hanging" font-weight="bold"><tspan x="425.53" y="156.0">Distributed Ingestion Layer</tspan></text><rect x="563.53" y="150.0" width="75.0" height="16.0" stroke="#22c86f" fill="#082b1b" stroke-width="1.0" rx="6.0" ry="6.0" /><text fill="#22c86f" font-size="11px" font-family="&quot;Helvetica Neue&quot;, &quot;Helvetica&quot;, &quot;Arial&quot;, sans-serif" text-anchor="middle" dominant-baseline="hanging" font-weight="bold"><tspan x="601.03" y="153.5">EVENT DRIVEN</tspan></text><polygon points="460.73,209.0 452.73,221.8 459.13,221.8 457.53000000000003,233.8 465.53000000000003,219.4 459.13,219.4 460.73,209.0" stroke="#7ee3d6" fill="#7ee3d6" stroke-width="2" stroke-linejoin="round" stroke-linecap="round" /><text fill="#f4f0ee" font-size="18px" font-family="&quot;Helvetica Neue&quot;, &quot;Helvetica&quot;, &quot;Arial&quot;, sans-serif" text-anchor="start" dominant-baseline="hanging"><tspan x="485.53" y="204.75">Ephemeral</tspan><tspan x="485.53" y="227.25">Buffers</tspan></text><text fill="#f4f0ee" font-size="9px" font-family="&quot;Helvetica Neue&quot;, &quot;Helvetica&quot;, &quot;Arial&quot;, sans-serif" text-anchor="start" dominant-baseline="hanging"><tspan x="445.53" y="252.625">Redis Stream queues</tspan><tspan x="445.53" y="263.875">Kafka transaction logs...</tspan></text><polyline points="454.33000000000004,318.7 448.73,325.09999999999997 454.33000000000004,331.5" stroke="#f4f0ee" fill="none" stroke-width="3" stroke-linejoin="round" stroke-linecap="round" /><polyline points="463.93,318.7 469.53000000000003,325.09999999999997 463.93,331.5" stroke="#f4f0ee" fill="none" stroke-width="3" stroke-linejoin="round" stroke-linecap="round" /><polyline points="460.72999999999996,316.3 457.53,333.90000000000003" stroke="#7ee3d6" fill="none" stroke-width="3" stroke-linejoin="round" stroke-linecap="round" /><text fill="#f4f0ee" font-size="18px" font-family="&quot;Helvetica Neue&quot;, &quot;Helvetica&quot;, &quot;Arial&quot;, sans-serif" text-anchor="start" dominant-baseline="hanging"><tspan x="485.53" y="309.25">Model-Agnostic</tspan><tspan x="485.53" y="331.75">Parsers</tspan></text><text fill="#f4f0ee" font-size="9px" font-family="&quot;Helvetica Neue&quot;, &quot;Helvetica&quot;, &quot;Arial&quot;, sans-serif" text-anchor="start" dominant-baseline="hanging"><tspan x="445.53" y="356.125">Claude XML tags</tspan><tspan x="445.53" y="367.375">OpenAI JSON schemas...</tspan></text><polyline points="451.53,420.0 459.53,428.0 451.53,436.0" stroke="#f4f0ee" fill="none" stroke-width="4" stroke-linejoin="round" stroke-linecap="round" /><polyline points="462.33,436.0 470.33,436.0" stroke="#7ee3d6" fill="none" stroke-width="4" stroke-linejoin="round" stroke-linecap="round" /><text fill="#f4f0ee" font-size="18px" font-family="&quot;Helvetica Neue&quot;, &quot;Helvetica&quot;, &quot;Arial&quot;, sans-serif" text-anchor="start" dominant-baseline="hanging"><tspan x="485.53" y="413.75">Stream</tspan><tspan x="485.53" y="436.25">Aggregators</tspan></text><text fill="#f4f0ee" font-size="9px" font-family="&quot;Helvetica Neue&quot;, &quot;Helvetica&quot;, &quot;Arial&quot;, sans-serif" text-anchor="start" dominant-baseline="hanging"><tspan x="445.53" y="462.625">Agent token usage logs</tspan><tspan x="445.53" y="473.875">Exception trace states...</tspan></text><text fill="#f4f0ee" font-size="22px" font-family="&quot;Helvetica Neue&quot;, &quot;Helvetica&quot;, &quot;Arial&quot;, sans-serif" text-anchor="start" dominant-baseline="hanging" font-weight="bold"><tspan x="562.2" y="911.0">Persistent State Mesh</tspan></text><text fill="#cfc7c5" font-size="11px" font-family="&quot;Helvetica Neue&quot;, &quot;Helvetica&quot;, &quot;Arial&quot;, sans-serif" text-anchor="start" dominant-baseline="hanging"><tspan x="562.2" y="946.0">(Distributed, encrypted, multi-model storage tier)</tspan></text><ellipse cx="817.4" cy="987.6" rx="10.4" ry="3.0" stroke="#f4f0ee" fill="#7ee3d6" stroke-width="2" /><polyline points="807.0,987.6 807.0,994.0" stroke="#f4f0ee" fill="none" stroke-width="2" stroke-linejoin="round" stroke-linecap="round" /><polyline points="827.8,987.6 827.8,994.0" stroke="#f4f0ee" fill="none" stroke-width="2" stroke-linejoin="round" stroke-linecap="round" /><ellipse cx="817.4" cy="994.0" rx="10.4" ry="3.0" stroke="#f4f0ee" fill="#7ee3d6" stroke-width="2" /><polyline points="807.0,994.0 807.0,1000.4" stroke="#f4f0ee" fill="none" stroke-width="2" stroke-linejoin="round" stroke-linecap="round" /><polyline points="827.8,994.0 827.8,1000.4" stroke="#f4f0ee" fill="none" stroke-width="2" stroke-linejoin="round" stroke-linecap="round" /><ellipse cx="817.4" cy="1000.4" rx="10.4" ry="3.0" stroke="#f4f0ee" fill="#7ee3d6" stroke-width="2" /><text fill="#f4f0ee" font-size="18px" font-family="&quot;Helvetica Neue&quot;, &quot;Helvetica&quot;, &quot;Arial&quot;, sans-serif" text-anchor="start" dominant-baseline="hanging"><tspan x="842.2" y="978.75">System WAL</tspan><tspan x="842.2" y="1001.25">Cluster</tspan></text><text fill="#f4f0ee" font-size="9px" font-family="&quot;Helvetica Neue&quot;, &quot;Helvetica&quot;, &quot;Arial&quot;, sans-serif" text-anchor="start" dominant-baseline="hanging"><tspan x="802.2" y="1026.625">Distributed WAL cluster</tspan><tspan x="802.2" y="1037.875">Replicated log consensus...</tspan></text><rect x="589.4" y="985.0" width="16.8" height="13.6" stroke="#f4f0ee" fill="#7ee3d6" stroke-width="2" rx="4" ry="4" /><rect x="586.2" y="989.8" width="16.8" height="13.6" stroke="#f4f0ee" fill="#7ee3d6" stroke-width="2" rx="4" ry="4" /><polyline points="589.4,994.6 596.6,994.6" stroke="#f4f0ee" fill="none" stroke-width="2" stroke-linejoin="round" stroke-linecap="round" /><polyline points="589.4,998.6 599.8,998.6" stroke="#f4f0ee" fill="none" stroke-width="2" stroke-linejoin="round" stroke-linecap="round" /><text fill="#f4f0ee" font-size="16px" font-family="&quot;Helvetica Neue&quot;, &quot;Helvetica&quot;, &quot;Arial&quot;, sans-serif" text-anchor="start" dominant-baseline="hanging"><tspan x="622.2" y="982.25">Blob Engine</tspan></text><text fill="#f4f0ee" font-size="9px" font-family="&quot;Helvetica Neue&quot;, &quot;Helvetica&quot;, &quot;Arial&quot;, sans-serif" text-anchor="start" dominant-baseline="hanging"><tspan x="582.2" y="1022.625">Immutable cold backups</tspan><tspan x="582.2" y="1033.875">Raw system snap dumps...</tspan></text><ellipse cx="595.8" cy="1102.1000000000001" rx="10.4" ry="10.4" stroke="#f4f0ee" fill="#7ee3d6" stroke-width="2" /><ellipse cx="595.8" cy="1102.1" rx="4.0" ry="4.0" stroke="#f4f0ee" fill="#f4f0ee" stroke-width="2" /><text fill="#f4f0ee" font-size="18px" font-family="&quot;Helvetica Neue&quot;, &quot;Helvetica&quot;, &quot;Arial&quot;, sans-serif" text-anchor="start" dominant-baseline="hanging"><tspan x="622.2" y="1086.25">Vector</tspan><tspan x="622.2" y="1108.75">Database</tspan></text><text fill="#f4f0ee" font-size="9px" font-family="&quot;Helvetica Neue&quot;, &quot;Helvetica&quot;, &quot;Arial&quot;, sans-serif" text-anchor="start" dominant-baseline="hanging"><tspan x="582.2" y="1134.125">pgvector storage</tspan><tspan x="582.2" y="1145.375">Dynamic HNSW index...</tspan></text><ellipse cx="807.8" cy="1102.8999999999999" rx="2.8" ry="2.8" stroke="#f4f0ee" fill="#7ee3d6" stroke-width="2" /><ellipse cx="823.0" cy="1091.7" rx="2.8" ry="2.8" stroke="#f4f0ee" fill="#7ee3d6" stroke-width="2" /><ellipse cx="823.0" cy="1114.1" rx="2.8" ry="2.8" stroke="#f4f0ee" fill="#7ee3d6" stroke-width="2" /><polyline points="810.6,1102.9 820.2,1094.5" stroke="#f4f0ee" fill="none" stroke-width="2" stroke-linejoin="round" stroke-linecap="round" /><polyline points="810.6,1102.9 820.2,1111.3000000000002" stroke="#f4f0ee" fill="none" stroke-width="2" stroke-linejoin="round" stroke-linecap="round" /><text fill="#f4f0ee" font-size="18px" font-family="&quot;Helvetica Neue&quot;, &quot;Helvetica&quot;, &quot;Arial&quot;, sans-serif" text-anchor="start" dominant-baseline="hanging"><tspan x="842.2" y="1088.25">Knowledge</tspan><tspan x="842.2" y="1110.75">Graph</tspan></text><text fill="#f4f0ee" font-size="9px" font-family="&quot;Helvetica Neue&quot;, &quot;Helvetica&quot;, &quot;Arial&quot;, sans-serif" text-anchor="start" dominant-baseline="hanging"><tspan x="802.2" y="1138.125">Neo4j / Memgraph</tspan><tspan x="802.2" y="1149.375">Semantic connections...</tspan></text><text fill="#f4f0ee" font-size="18px" font-family="&quot;Helvetica Neue&quot;, &quot;Helvetica&quot;, &quot;Arial&quot;, sans-serif" text-anchor="start" dominant-baseline="hanging"><tspan x="574.2" y="1195.75">Hybrid Search Engine (HNSW Index + BM25</tspan><tspan x="574.2" y="1218.25">Lexical + Cypher Traversal)</tspan></text><text fill="#f4f0ee" font-size="22px" font-family="&quot;Helvetica Neue&quot;, &quot;Helvetica&quot;, &quot;Arial&quot;, sans-serif" text-anchor="start" dominant-baseline="hanging" font-weight="bold"><tspan x="632.2" y="1303.0">Agent Execution Fabric</tspan></text><polyline points="656.2,1361.2 675.4000000000001,1361.2" stroke="#f4f0ee" fill="none" stroke-width="2" stroke-linejoin="round" stroke-linecap="round" /><rect x="660.2" y="1358.8" width="4.0" height="4.8" stroke="#f4f0ee" fill="#7ee3d6" stroke-width="1.5" rx="2" ry="2" /><polyline points="656.2,1367.6 675.4000000000001,1367.6" stroke="#f4f0ee" fill="none" stroke-width="2" stroke-linejoin="round" stroke-linecap="round" /><rect x="665.8" y="1365.2" width="4.0" height="4.8" stroke="#f4f0ee" fill="#7ee3d6" stroke-width="1.5" rx="2" ry="2" /><polyline points="656.2,1374.0 675.4000000000001,1374.0" stroke="#f4f0ee" fill="none" stroke-width="2" stroke-linejoin="round" stroke-linecap="round" /><rect x="671.4" y="1371.6" width="4.0" height="4.8" stroke="#f4f0ee" fill="#7ee3d6" stroke-width="1.5" rx="2" ry="2" /><text fill="#f4f0ee" font-size="18px" font-family="&quot;Helvetica Neue&quot;, &quot;Helvetica&quot;, &quot;Arial&quot;, sans-serif" text-anchor="start" dominant-baseline="hanging"><tspan x="692.2" y="1351.75">Dynamic</tspan><tspan x="692.2" y="1374.25">Planner</tspan></text><text fill="#f4f0ee" font-size="9px" font-family="&quot;Helvetica Neue&quot;, &quot;Helvetica&quot;, &quot;Arial&quot;, sans-serif" text-anchor="start" dominant-baseline="hanging"><tspan x="652.2" y="1399.625">Injects real-time context</tspan><tspan x="652.2" y="1410.875">Adapts runbook goals...</tspan></text><polygon points="665.8,1458.7 676.1999999999999,1464.3 676.1999999999999,1475.5 665.8,1481.1000000000001 655.4,1475.5 655.4,1464.3 665.8,1458.7" stroke="#f4f0ee" fill="none" stroke-width="2" stroke-linejoin="round" stroke-linecap="round" /><polyline points="655.4,1464.3 665.8,1469.8999999999999 676.1999999999999,1464.3" stroke="#f4f0ee" fill="none" stroke-width="2" stroke-linejoin="round" stroke-linecap="round" /><polyline points="665.8,1469.9 665.8,1481.1000000000001" stroke="#f4f0ee" fill="none" stroke-width="2" stroke-linejoin="round" stroke-linecap="round" /><text fill="#f4f0ee" font-size="18px" font-family="&quot;Helvetica Neue&quot;, &quot;Helvetica&quot;, &quot;Arial&quot;, sans-serif" text-anchor="start" dominant-baseline="hanging"><tspan x="692.2" y="1453.25">Ephemeral</tspan><tspan x="692.2" y="1475.75">Tools</tspan></text><text fill="#f4f0ee" font-size="9px" font-family="&quot;Helvetica Neue&quot;, &quot;Helvetica&quot;, &quot;Arial&quot;, sans-serif" text-anchor="start" dominant-baseline="hanging"><tspan x="652.2" y="1501.125">Sandboxed runtimes</tspan><tspan x="652.2" y="1512.375">Short-lived API configurations...</tspan></text><ellipse cx="664.1999999999999" cy="1565.8" rx="4.8" ry="4.8" stroke="#f4f0ee" fill="#7ee3d6" stroke-width="2" /><polyline points="655.4,1578.6000000000001 655.4,1574.6000000000001 659.4,1572.2 669.0,1572.2 673.0,1574.6000000000001 673.0,1578.6000000000001" stroke="#f4f0ee" fill="none" stroke-width="2" stroke-linejoin="round" stroke-linecap="round" /><polyline points="670.6,1565.8 672.6,1568.1999999999998 677.0,1562.6" stroke="#22c86f" fill="none" stroke-width="3" stroke-linejoin="round" stroke-linecap="round" /><text fill="#f4f0ee" font-size="18px" font-family="&quot;Helvetica Neue&quot;, &quot;Helvetica&quot;, &quot;Arial&quot;, sans-serif" text-anchor="start" dominant-baseline="hanging"><tspan x="692.2" y="1556.75">Persona</tspan><tspan x="692.2" y="1579.25">Registry</tspan></text><text fill="#f4f0ee" font-size="9px" font-family="&quot;Helvetica Neue&quot;, &quot;Helvetica&quot;, &quot;Arial&quot;, sans-serif" text-anchor="start" dominant-baseline="hanging"><tspan x="652.2" y="1606.625">Cross-agent alignment</tspan><tspan x="652.2" y="1617.875">Historical user biases...</tspan></text><text fill="#f4f0ee" font-size="17px" font-family="&quot;Helvetica Neue&quot;, &quot;Helvetica&quot;, &quot;Arial&quot;, sans-serif" text-anchor="middle" dominant-baseline="hanging" font-weight="bold"><tspan x="160.0" y="1795.75">State Validated?</tspan></text><text fill="#f4f0ee" font-size="12px" font-family="&quot;Helvetica Neue&quot;, &quot;Helvetica&quot;, &quot;Arial&quot;, sans-serif" text-anchor="middle" dominant-baseline="hanging" font-weight="bold"><tspan x="160.0" y="1822.25">Consensus achieved</tspan><tspan x="160.0" y="1837.25">Schema matched</tspan><tspan x="160.0" y="1852.25">Conflict free</tspan></text><polygon points="297.4,1122.0 289.4,1134.8 295.79999999999995,1134.8 294.2,1146.8 302.2,1132.4 295.79999999999995,1132.4 297.4,1122.0" stroke="#7ee3d6" fill="#7ee3d6" stroke-width="2" stroke-linejoin="round" stroke-linecap="round" /><text fill="#f4f0ee" font-size="18px" font-family="&quot;Helvetica Neue&quot;, &quot;Helvetica&quot;, &quot;Arial&quot;, sans-serif" text-anchor="start" dominant-baseline="hanging" font-weight="bold"><tspan x="322.2" y="1117.75">Dispatched</tspan><tspan x="322.2" y="1140.25">Context</tspan></text><text fill="#f4f0ee" font-size="47px" font-family="&quot;Helvetica Neue&quot;, &quot;Helvetica&quot;, &quot;Arial&quot;, sans-serif" text-anchor="start" dominant-baseline="hanging" font-weight="bold"><tspan x="45.0" y="23.5">Architecture of the</tspan></text><text fill="#f4f0ee" font-size="43px" font-family="&quot;Helvetica Neue&quot;, &quot;Helvetica&quot;, &quot;Arial&quot;, sans-serif" text-anchor="middle" dominant-baseline="hanging" font-weight="bold"><tspan x="859.0" y="35.5">Cognitive Memory Mesh</tspan></text><text fill="#cfc7c5" font-size="15px" font-family="&quot;Helvetica Neue&quot;, &quot;Helvetica&quot;, &quot;Arial&quot;, sans-serif" text-anchor="start" dominant-baseline="hanging"><tspan x="104.0" y="95.0">Multi-Agent State Synchronization &amp; Graph RAG</tspan></text><text fill="#bd54d3" font-size="24px" font-family="&quot;Helvetica Neue&quot;, &quot;Helvetica&quot;, &quot;Arial&quot;, sans-serif" text-anchor="start" dominant-baseline="hanging" opacity="0.6470588235294118" font-weight="bold"><tspan x="1408.0" y="142.0">@FlowDraft</tspan></text><text fill="#7ee3d6" font-size="24px" font-family="&quot;Helvetica Neue&quot;, &quot;Helvetica&quot;, &quot;Arial&quot;, sans-serif" text-anchor="start" dominant-baseline="hanging" opacity="0.5294117647058824" font-weight="bold"><tspan x="1410.0" y="140.0">@FlowDraft</tspan></text><text fill="#f4f0ee" font-size="24px" font-family="&quot;Helvetica Neue&quot;, &quot;Helvetica&quot;, &quot;Arial&quot;, sans-serif" text-anchor="start" dominant-baseline="hanging" opacity="0.9607843137254902" font-weight="bold"><tspan x="1409.0" y="141.0">@FlowDraft</tspan></text><polyline points="1413.0,179.0 1499.0,179.0" stroke="#5c6265" fill="none" stroke-width="1" stroke-linejoin="round" stroke-linecap="round" opacity="0.39215686274509803" /><rect x="960.2" y="580.0" width="200.0" height="21.0" stroke="#000000" fill="#000000" stroke-width="0.0" rx="0.0" ry="0.0" /><text fill="#f4f0ee" font-size="9px" font-family="&quot;Helvetica Neue&quot;, &quot;Helvetica&quot;, &quot;Arial&quot;, sans-serif" text-anchor="middle" dominant-baseline="hanging"><tspan x="1060.2" y="580.375">Iterate state sync until vector drift &lt; 2% and</tspan><tspan x="1060.2" y="591.625">WAL entries commit to storage blocks</tspan></text><rect x="1420.2" y="580.0" width="200.0" height="21.0" stroke="#000000" fill="#000000" stroke-width="0.0" rx="0.0" ry="0.0" /><text fill="#f4f0ee" font-size="12px" font-family="&quot;Helvetica Neue&quot;, &quot;Helvetica&quot;, &quot;Arial&quot;, sans-serif" text-anchor="middle" dominant-baseline="hanging"><tspan x="1520.2" y="584.5">Timeout / Consensus recovery path</tspan></text><rect x="482.28" y="109.5" width="102.5" height="21.0" stroke="#000000" fill="#000000" stroke-width="0.0" rx="0.0" ry="0.0" /><text fill="#f4f0ee" font-size="14px" font-family="&quot;Helvetica Neue&quot;, &quot;Helvetica&quot;, &quot;Arial&quot;, sans-serif" text-anchor="middle" dominant-baseline="hanging"><tspan x="533.53" y="113.0">Ingest Events</tspan></text><rect x="885.73" y="1661.5" width="126.0" height="21.0" stroke="#000000" fill="#000000" stroke-width="0.0" rx="0.0" ry="0.0" /><text fill="#f4f0ee" font-size="14px" font-family="&quot;Helvetica Neue&quot;, &quot;Helvetica&quot;, &quot;Arial&quot;, sans-serif" text-anchor="middle" dominant-baseline="hanging"><tspan x="948.73" y="1665.0">Dynamic Compile</tspan></text><rect x="246.75" y="1551.0" width="114.5" height="21.0" stroke="#000000" fill="#000000" stroke-width="0.0" rx="0.0" ry="0.0" /><text fill="#f4f0ee" font-size="14px" font-family="&quot;Helvetica Neue&quot;, &quot;Helvetica&quot;, &quot;Arial&quot;, sans-serif" text-anchor="middle" dominant-baseline="hanging"><tspan x="304.0" y="1554.5">Feedback Loop</tspan></text><rect x="214.0" y="1502.04" width="84.0" height="18.0" stroke="#000000" fill="#000000" stroke-width="0.0" rx="0.0" ry="0.0" /><text fill="#f4f0ee" font-size="14px" font-family="&quot;Helvetica Neue&quot;, &quot;Helvetica&quot;, &quot;Arial&quot;, sans-serif" text-anchor="middle" dominant-baseline="hanging"><tspan x="256.0" y="1504.04">Yes / Pass</tspan></text><rect x="-41.5" y="993.34" width="115.0" height="21.0" stroke="#000000" fill="#000000" stroke-width="0.0" rx="0.0" ry="0.0" /><text fill="#f4f0ee" font-size="14px" font-family="&quot;Helvetica Neue&quot;, &quot;Helvetica&quot;, &quot;Arial&quot;, sans-serif" text-anchor="middle" dominant-baseline="hanging"><tspan x="16.0" y="996.84">No / Fail (Retry)</tspan></text></svg>