<svg xmlns="http://www.w3.org/2000/svg" width="1639" height="1931" viewBox="0 0 1639 1931"><defs><filter id="panel-shadow" x="-6%" y="-6%" width="118%" height="118%"><feDropShadow dx="0" dy="3" stdDeviation="5" flood-color="#000000" flood-opacity="0.20" /></filter></defs><rect width="100%" height="100%" fill="#000000" /><rect x="733.53" y="225.0" width="280" height="290.5" stroke="#22c86f" fill="none" stroke-width="2" rx="16" ry="16" /><rect x="500.2" y="605.5" width="1120" height="207" stroke="#1d8be8" fill="none" stroke-width="3" rx="20" ry="20" /><rect x="413.53" y="135.0" width="240" height="380.5" stroke="#22c86f" fill="none" stroke-width="2" rx="16" ry="16" /><rect x="550.2" y="902.5" width="460" height="390.0" stroke="#bd54d3" fill="none" stroke-width="2" rx="16" ry="16" /><rect x="620.2" y="1332.5" width="240" height="378.5" stroke="#f4b64e" fill="none" stroke-width="2" rx="16" ry="16" /><rect x="18.0" y="135.0" width="1603.0" height="1778.0" stroke="#5c6265" fill="none" stroke-width="2" rx="29" ry="29" /><polyline points="863.53,314.0 864.0,304.0 864.0,216.0 664.0,216.0 664.0,528.0 488.0,528.0 488.0,744.0 512.0,744.0 520.2,740.5" stroke="#1d8be8" fill="none" stroke-width="2" stroke-linejoin="round" stroke-linecap="round" /><polyline points="511.7566499441664,751.6673559912207 520.2,740.5 506.29503014886956,738.8715610422395" stroke="#1d8be8" fill="none" stroke-width="2" stroke-linejoin="round" stroke-linecap="round" /><polyline points="863.53,463.25 872.0,464.0 872.0,528.0 488.0,528.0 488.0,744.0 512.0,744.0 520.2,740.5" stroke="#1d8be8" fill="none" stroke-width="2" stroke-linejoin="round" stroke-linecap="round" /><polyline points="511.7566499441664,751.6673559912207 520.2,740.5 506.29503014886956,738.8715610422395" stroke="#1d8be8" fill="none" stroke-width="2" stroke-linejoin="round" stroke-linecap="round" /><polyline points="863.53,385.0 856.0,384.0 664.0,384.0 664.0,528.0 488.0,528.0 488.0,744.0 512.0,744.0 520.2,740.5" stroke="#1d8be8" fill="none" stroke-width="2" stroke-linejoin="round" stroke-linecap="round" /><polyline points="511.7566499441664,751.6673559912207 520.2,740.5 506.29503014886956,738.8715610422395" stroke="#1d8be8" fill="none" stroke-width="2" stroke-linejoin="round" stroke-linecap="round" /><polyline points="993.53,314.0 1000.0,312.0 1024.0,312.0 1024.0,528.0 488.0,528.0 488.0,744.0 512.0,744.0 520.2,740.5" stroke="#1d8be8" fill="none" stroke-width="2" stroke-linejoin="round" stroke-linecap="round" /><polyline points="511.7566499441664,751.6673559912207 520.2,740.5 506.29503014886956,738.8715610422395" stroke="#1d8be8" fill="none" stroke-width="2" stroke-linejoin="round" stroke-linecap="round" /><polyline points="993.53,385.0 1000.0,384.0 1024.0,384.0 1024.0,528.0 488.0,528.0 488.0,744.0 512.0,744.0 520.2,740.5" stroke="#1d8be8" fill="none" stroke-width="2" stroke-linejoin="round" stroke-linecap="round" /><polyline points="511.7566499441664,751.6673559912207 520.2,740.5 506.29503014886956,738.8715610422395" stroke="#1d8be8" fill="none" stroke-width="2" stroke-linejoin="round" stroke-linecap="round" /><polyline points="720.2,740.5 728.0,744.0 736.0,744.0 740.2,740.5" stroke="#1d8be8" fill="none" stroke-width="2" stroke-linejoin="round" stroke-linecap="round" /><polyline points="735.3198485291142,753.6218947420413 740.2,740.5 726.4131909720948,742.9339056736178" stroke="#1d8be8" fill="none" stroke-width="2" stroke-linejoin="round" stroke-linecap="round" /><polyline points="940.2,740.5 952.0,744.0 960.2,740.5" stroke="#1d8be8" fill="none" stroke-width="2" stroke-linejoin="round" stroke-linecap="round" /><polyline points="951.7566499441664,751.6673559912207 960.2,740.5 946.2950301488695,738.8715610422395" stroke="#1d8be8" fill="none" stroke-width="2" stroke-linejoin="round" stroke-linecap="round" /><polyline points="1160.2,740.5 1168.0,744.0 1176.0,744.0 1180.2,740.5" stroke="#1d8be8" fill="none" stroke-width="2" stroke-linejoin="round" stroke-linecap="round" /><polyline points="1175.319848529114,753.6218947420413 1180.2,740.5 1166.4131909720948,742.9339056736178" stroke="#1d8be8" fill="none" stroke-width="2" stroke-linejoin="round" stroke-linecap="round" /><polyline points="1380.2,740.5 1392.0,744.0 1400.2,740.5" stroke="#1d8be8" fill="none" stroke-width="2" stroke-linejoin="round" stroke-linecap="round" /><polyline points="1391.7566499441664,751.6673559912207 1400.2,740.5 1386.2950301488695,738.8715610422395" stroke="#1d8be8" fill="none" stroke-width="2" stroke-linejoin="round" stroke-linecap="round" /><polyline points="1600.2,740.5 1608.0,744.0 1632.0,744.0 1632.0,824.0 16.0,824.0 16.0,1840.0 24.0,1840.0 28.0,1838.0" stroke="#1d8be8" fill="none" stroke-width="2" stroke-linejoin="round" stroke-linecap="round" /><polyline points="20.24414674523753,1849.6553309815977 28.0,1838.0 14.022223261864385,1837.2114840148513" stroke="#1d8be8" fill="none" stroke-width="2" stroke-linejoin="round" stroke-linecap="round" /><polyline points="292.0,1838.0 296.0,1840.0 304.0,1840.0 304.0,1752.0 256.0,1752.0 256.0,1168.0 264.0,1168.0 270.2,1164.5" stroke="#1d8be8" fill="none" stroke-width="2" stroke-linejoin="round" stroke-linecap="round" /><polyline points="263.03963615707016,1176.5303445352517 270.2,1164.5 256.2002587911568,1164.414876058491" stroke="#1d8be8" fill="none" stroke-width="2" stroke-linejoin="round" stroke-linecap="round" /><rect x="248.0" y="1516.68" width="40.0" height="20.0" stroke="#000000" fill="#000000" stroke-width="0" rx="6" ry="6" /><text fill="#f4f0ee" font-size="12px" font-family="&quot;Helvetica Neue&quot;, &quot;Helvetica&quot;, &quot;Arial&quot;, sans-serif" text-anchor="middle" dominant-baseline="hanging"><tspan x="268.0" y="1520.68">Yes</tspan></text><polyline points="28.0,1838.0 24.0,1840.0 16.0,1840.0 16.0,824.0 624.0,824.0 624.0,800.0 620.2,792.5" stroke="#1d8be8" fill="none" stroke-width="2" stroke-linejoin="round" stroke-linecap="round" /><polyline points="631.8964200559309,800.1937479732064 620.2,792.5 619.4858439939778,806.4817731779293" stroke="#1d8be8" fill="none" stroke-width="2" stroke-linejoin="round" stroke-linecap="round" /><rect x="8.0" y="1008.03" width="40.0" height="20.0" stroke="#000000" fill="#000000" stroke-width="0" rx="6" ry="6" /><text fill="#f4f0ee" font-size="12px" font-family="&quot;Helvetica Neue&quot;, &quot;Helvetica&quot;, &quot;Arial&quot;, sans-serif" text-anchor="middle" dominant-baseline="hanging"><tspan x="28.0" y="1012.03">No</tspan></text><polyline points="470.2,1164.5 480.0,1168.0 480.0,1440.0 632.0,1440.0 640.2,1440.25" stroke="#1d8be8" fill="none" stroke-width="2" stroke-linejoin="round" stroke-linecap="round" /><polyline points="627.8441895665561,1446.8328526136318 640.2,1440.25 628.2681585427467,1432.9266701945787" stroke="#1d8be8" fill="none" stroke-width="2" stroke-linejoin="round" stroke-linecap="round" /><polyline points="633.53,242.75 640.0,240.0 664.0,240.0 664.0,528.0 488.0,528.0 488.0,824.0 624.0,824.0 624.0,800.0 620.2,792.5" stroke="#1d8be8" fill="none" stroke-width="2" stroke-linejoin="round" stroke-linecap="round" /><polyline points="631.8964200559309,800.1937479732064 620.2,792.5 619.4858439939778,806.4817731779293" stroke="#1d8be8" fill="none" stroke-width="2" stroke-linejoin="round" stroke-linecap="round" /><polyline points="1060.2,785.25 1064.0,792.0 1064.0,824.0 888.0,824.0 888.0,976.0 890.2,985.5" stroke="#1d8be8" fill="none" stroke-width="2" stroke-linejoin="round" stroke-linecap="round" /><polyline points="880.6820033618333,975.2331728369546 890.2,985.5 894.2359524392735,972.0943635769158" stroke="#1d8be8" fill="none" stroke-width="2" stroke-linejoin="round" stroke-linecap="round" /><polyline points="1280.2,786.25 1280.0,792.0 1280.0,1096.0 896.0,1096.0 890.2,1093.0" stroke="#1d8be8" fill="none" stroke-width="2" stroke-linejoin="round" stroke-linecap="round" /><polyline points="904.1872660160434,1092.403016418618 890.2,1093.0 897.7954785648034,1104.760472157682" stroke="#1d8be8" fill="none" stroke-width="2" stroke-linejoin="round" stroke-linecap="round" /><polyline points="990.2,1138.75 1000.0,1136.0 1024.0,1136.0 1024.0,1304.0 608.0,1304.0 608.0,1440.0 632.0,1440.0 640.2,1440.25" stroke="#1d8be8" fill="none" stroke-width="2" stroke-linejoin="round" stroke-linecap="round" /><polyline points="627.8441895665561,1446.8328526136318 640.2,1440.25 628.2681585427467,1432.9266701945787" stroke="#1d8be8" fill="none" stroke-width="2" stroke-linejoin="round" stroke-linecap="round" /><polyline points="640.2,1440.25 632.0,1440.0 304.0,1440.0 304.0,1928.0 160.0,1928.0 160.0,1913.0" stroke="#1d8be8" fill="none" stroke-width="2" stroke-linejoin="round" stroke-linecap="round" /><polyline points="166.9563219298123,1925.1494685154871 160.0,1913.0 153.0436780701877,1925.1494685154871" stroke="#1d8be8" fill="none" stroke-width="2" stroke-linejoin="round" stroke-linecap="round" /><rect x="269.25" y="1585.4" width="93.5" height="20.0" stroke="#000000" fill="#000000" stroke-width="0" rx="6" ry="6" /><text fill="#f4f0ee" font-size="12px" font-family="&quot;Helvetica Neue&quot;, &quot;Helvetica&quot;, &quot;Arial&quot;, sans-serif" text-anchor="middle" dominant-baseline="hanging"><tspan x="316.0" y="1589.4">Feedback Loop</tspan></text><polyline points="533.53,286.5 536.0,296.0 533.53,303.5" stroke="#1d8be8" fill="none" stroke-width="2" stroke-linejoin="round" stroke-linecap="round" /><polyline points="530.7231989133854,289.7842474628557 533.53,303.5 543.9376633997895,294.13621110037815" stroke="#1d8be8" fill="none" stroke-width="2" stroke-linejoin="round" stroke-linecap="round" /><polyline points="533.53,389.0 536.0,400.0 533.53,406.0" stroke="#1d8be8" fill="none" stroke-width="2" stroke-linejoin="round" stroke-linecap="round" /><polyline points="531.7223854435097,392.11718581788386 533.53,406.0 544.5875465309265,397.4133437988705" stroke="#1d8be8" fill="none" stroke-width="2" stroke-linejoin="round" stroke-linecap="round" /><polyline points="740.2,1484.0 740.2,1498.0" stroke="#1d8be8" fill="none" stroke-width="2" stroke-linejoin="round" stroke-linecap="round" /><polyline points="733.2436780701877,1485.8505314845129 740.2,1498.0 747.1563219298124,1485.8505314845129" stroke="#1d8be8" fill="none" stroke-width="2" stroke-linejoin="round" stroke-linecap="round" /><polyline points="740.2,1585.5 744.0,1592.0 740.2,1599.5" stroke="#1d8be8" fill="none" stroke-width="2" stroke-linejoin="round" stroke-linecap="round" /><polyline points="739.4858439939778,1585.5182268220708 740.2,1599.5 751.8964200559309,1591.8062520267936" stroke="#1d8be8" fill="none" stroke-width="2" stroke-linejoin="round" stroke-linecap="round" /><polyline points="670.2,1069.0 672.0,1064.0 672.0,888.0 536.0,888.0 536.0,1304.0 784.0,1304.0 784.0,1208.0 780.2,1200.5" stroke="#1d8be8" fill="none" stroke-width="2" stroke-linejoin="round" stroke-linecap="round" /><polyline points="791.8964200559309,1208.1937479732064 780.2,1200.5 779.4858439939778,1214.4817731779292" stroke="#1d8be8" fill="none" stroke-width="2" stroke-linejoin="round" stroke-linecap="round" /><rect x="753.53" y="289.0" width="110" height="50" stroke="#22c86f" fill="#061826" stroke-width="2.5" rx="8" ry="8" /><rect x="753.53" y="431.0" width="110" height="64.5" stroke="#22c86f" fill="#061826" stroke-width="2.5" rx="8" ry="8" /><rect x="753.53" y="359.0" width="110" height="52" stroke="#22c86f" fill="#061826" stroke-width="2.5" rx="8" ry="8" /><rect x="883.53" y="289.0" width="110" height="50" stroke="#22c86f" fill="#061826" stroke-width="2.5" rx="8" ry="8" /><rect x="883.53" y="359.0" width="110" height="52" stroke="#22c86f" fill="#061826" stroke-width="2.5" rx="8" ry="8" /><rect x="520.2" y="688.5" width="200" height="104" stroke="transparent" fill="#081626" stroke-width="2" rx="12" ry="12" /><rect x="740.2" y="694.75" width="200" height="91.5" stroke="transparent" fill="#081626" stroke-width="2" rx="12" ry="12" /><rect x="960.2" y="695.75" width="200" height="89.5" stroke="transparent" fill="#081626" stroke-width="2" rx="12" ry="12" /><rect x="1180.2" y="694.75" width="200" height="91.5" stroke="transparent" fill="#081626" stroke-width="2" rx="12" ry="12" /><rect x="1400.2" y="696.75" width="200" height="87.5" stroke="transparent" fill="#081626" stroke-width="2" rx="12" ry="12" /><polygon points="160.0,1763.0 292.0,1838.0 160.0,1913.0 28.0,1838.0" stroke="#22c86f" fill="#052515" stroke-width="3" stroke-linejoin="round" stroke-linecap="round" /><rect x="270.2" y="1124.5" width="200" height="80" stroke="transparent" fill="#081626" stroke-width="2.5" rx="12" ry="12" /><rect x="433.53" y="199.0" width="200" height="87.5" stroke="transparent" fill="#081626" stroke-width="2" rx="10" ry="10" /><rect x="433.53" y="303.5" width="200" height="85.5" stroke="transparent" fill="#081626" stroke-width="2" rx="10" ry="10" /><rect x="433.53" y="406.0" width="200" height="89.5" stroke="transparent" fill="#081626" stroke-width="2" rx="10" ry="10" /><rect x="570.2" y="1093.0" width="200" height="91.5" stroke="transparent" fill="#081626" stroke-width="2" rx="10" ry="10" /><rect x="570.2" y="985.5" width="200" height="83.5" stroke="transparent" fill="#081626" stroke-width="2" rx="10" ry="10" /><rect x="790.2" y="985.5" width="200" height="87.5" stroke="transparent" fill="#081626" stroke-width="2" rx="10" ry="10" /><rect x="790.2" y="1093.0" width="200" height="91.5" stroke="transparent" fill="#081626" stroke-width="2" rx="10" ry="10" /><rect x="562.2" y="1200.5" width="436" height="80" stroke="transparent" fill="#081626" stroke-width="2" rx="8" ry="8" /><rect x="640.2" y="1396.5" width="200" height="87.5" stroke="transparent" fill="#081626" stroke-width="2" rx="10" ry="10" /><rect x="640.2" y="1498.0" width="200" height="87.5" stroke="transparent" fill="#081626" stroke-width="2" rx="10" ry="10" /><rect x="640.2" y="1599.5" width="200" height="91.5" stroke="transparent" fill="#081626" stroke-width="2" rx="10" ry="10" /><rect x="23.5" y="31.0" width="11.0" height="47.0" stroke="#bd54d3" fill="#bd54d3" stroke-width="2" rx="12" ry="12" /><rect x="600.0" y="27.0" width="518.0" height="72.0" stroke="#124238" fill="#124238" stroke-width="2" rx="16" ry="16" /><ellipse cx="1368.5" cy="145.5" rx="2.5" ry="2.5" stroke="#7ee3d6" fill="#7ee3d6" stroke-width="1" /><ellipse cx="1378.5" cy="153.5" rx="2.5" ry="2.5" stroke="#f4f0ee" fill="#f4f0ee" stroke-width="1" /><ellipse cx="1368.5" cy="161.5" rx="2.5" ry="2.5" stroke="#bd54d3" fill="#bd54d3" stroke-width="1" /><ellipse cx="1378.5" cy="169.5" rx="2.5" ry="2.5" stroke="#f4f0ee" fill="#f4f0ee" stroke-width="1" /><ellipse cx="1388.5" cy="145.5" rx="2.5" ry="2.5" stroke="#f4f0ee" fill="#f4f0ee" stroke-width="1" /><ellipse cx="1398.5" cy="153.5" rx="2.5" ry="2.5" stroke="#ff7ab6" fill="#ff7ab6" stroke-width="1" /><ellipse cx="1388.5" cy="161.5" rx="2.5" ry="2.5" stroke="#f4f0ee" fill="#f4f0ee" stroke-width="1" /><ellipse cx="1398.5" cy="169.5" rx="2.5" ry="2.5" stroke="#22c86f" fill="#22c86f" stroke-width="1" /><text fill="#f4f0ee" font-size="22px" font-family="&quot;Helvetica Neue&quot;, &quot;Helvetica&quot;, &quot;Arial&quot;, sans-serif" text-anchor="start" dominant-baseline="hanging" font-weight="bold"><tspan x="745.53" y="246.0">Telemetry &amp; Knowledge Ingest</tspan></text><text fill="#f4f0ee" font-size="22px" font-family="&quot;Helvetica Neue&quot;, &quot;Helvetica&quot;, &quot;Arial&quot;, sans-serif" text-anchor="start" dominant-baseline="hanging" font-weight="bold"><tspan x="512.2" y="626.5">Orchestration &amp; Synchronization Core</tspan></text><text fill="#cfc7c5" font-size="11px" font-family="&quot;Helvetica Neue&quot;, &quot;Helvetica&quot;, &quot;Arial&quot;, sans-serif" text-anchor="start" dominant-baseline="hanging"><tspan x="512.2" y="661.5">(Asynchronous distributed pipeline)</tspan></text><text fill="#f4f0ee" font-size="22px" font-family="&quot;Helvetica Neue&quot;, &quot;Helvetica&quot;, &quot;Arial&quot;, sans-serif" text-anchor="start" dominant-baseline="hanging" font-weight="bold"><tspan x="425.53" y="156.0">Distributed Ingestion Layer</tspan></text><rect x="563.53" y="150.0" width="75.0" height="16.0" stroke="#22c86f" fill="#082b1b" stroke-width="1" rx="6" ry="6" /><text fill="#22c86f" font-size="11px" font-family="&quot;Helvetica Neue&quot;, &quot;Helvetica&quot;, &quot;Arial&quot;, sans-serif" text-anchor="middle" dominant-baseline="hanging" font-weight="bold"><tspan x="601.03" y="153.5">EVENT DRIVEN</tspan></text><text fill="#f4f0ee" font-size="22px" font-family="&quot;Helvetica Neue&quot;, &quot;Helvetica&quot;, &quot;Arial&quot;, sans-serif" text-anchor="start" dominant-baseline="hanging" font-weight="bold"><tspan x="562.2" y="923.5">Persistent State Mesh</tspan></text><text fill="#cfc7c5" font-size="11px" font-family="&quot;Helvetica Neue&quot;, &quot;Helvetica&quot;, &quot;Arial&quot;, sans-serif" text-anchor="start" dominant-baseline="hanging"><tspan x="562.2" y="958.5">(Encrypted state persistence &amp; WAL journal tier)</tspan></text><text fill="#f4f0ee" font-size="22px" font-family="&quot;Helvetica Neue&quot;, &quot;Helvetica&quot;, &quot;Arial&quot;, sans-serif" text-anchor="start" dominant-baseline="hanging" font-weight="bold"><tspan x="632.2" y="1353.5">Agent Execution Fabric</tspan></text><ellipse cx="815.53" cy="303.25" rx="13.0" ry="3.75" stroke="#f4f0ee" fill="#22c86f" stroke-width="2.0" /><polyline points="802.53,303.25 802.53,311.25" stroke="#f4f0ee" fill="none" stroke-width="2.0" stroke-linejoin="round" stroke-linecap="round" /><polyline points="828.53,303.25 828.53,311.25" stroke="#f4f0ee" fill="none" stroke-width="2.0" stroke-linejoin="round" stroke-linecap="round" /><ellipse cx="815.53" cy="311.25" rx="13.0" ry="3.75" stroke="#f4f0ee" fill="#22c86f" stroke-width="2.0" /><polyline points="802.53,311.25 802.53,319.25" stroke="#f4f0ee" fill="none" stroke-width="2.0" stroke-linejoin="round" stroke-linecap="round" /><polyline points="828.53,311.25 828.53,319.25" stroke="#f4f0ee" fill="none" stroke-width="2.0" stroke-linejoin="round" stroke-linecap="round" /><ellipse cx="815.53" cy="319.25" rx="13.0" ry="3.75" stroke="#f4f0ee" fill="#22c86f" stroke-width="2.0" /><text fill="#f4f0ee" font-size="13px" font-family="&quot;Helvetica Neue&quot;, &quot;Helvetica&quot;, &quot;Arial&quot;, sans-serif" text-anchor="middle" dominant-baseline="hanging"><tspan x="808.53" y="324.5">Vector Streams</tspan></text><rect x="808.53" y="449.0" width="14.0" height="14.0" stroke="#f4f0ee" fill="#22c86f" stroke-width="2.0" rx="4.0" ry="4.0" /><polyline points="802.53,451.0 808.53,451.0" stroke="#f4f0ee" fill="none" stroke-width="2.0" stroke-linejoin="round" stroke-linecap="round" /><polyline points="822.53,451.0 828.53,451.0" stroke="#f4f0ee" fill="none" stroke-width="2.0" stroke-linejoin="round" stroke-linecap="round" /><polyline points="810.53,443.0 810.53,449.0" stroke="#f4f0ee" fill="none" stroke-width="2.0" stroke-linejoin="round" stroke-linecap="round" /><polyline points="810.53,463.0 810.53,469.0" stroke="#f4f0ee" fill="none" stroke-width="2.0" stroke-linejoin="round" stroke-linecap="round" /><polyline points="802.53,456.0 808.53,456.0" stroke="#f4f0ee" fill="none" stroke-width="2.0" stroke-linejoin="round" stroke-linecap="round" /><polyline points="822.53,456.0 828.53,456.0" stroke="#f4f0ee" fill="none" stroke-width="2.0" stroke-linejoin="round" stroke-linecap="round" /><polyline points="815.53,443.0 815.53,449.0" stroke="#f4f0ee" fill="none" stroke-width="2.0" stroke-linejoin="round" stroke-linecap="round" /><polyline points="815.53,463.0 815.53,469.0" stroke="#f4f0ee" fill="none" stroke-width="2.0" stroke-linejoin="round" stroke-linecap="round" /><polyline points="802.53,461.0 808.53,461.0" stroke="#f4f0ee" fill="none" stroke-width="2.0" stroke-linejoin="round" stroke-linecap="round" /><polyline points="822.53,461.0 828.53,461.0" stroke="#f4f0ee" fill="none" stroke-width="2.0" stroke-linejoin="round" stroke-linecap="round" /><polyline points="820.53,443.0 820.53,449.0" stroke="#f4f0ee" fill="none" stroke-width="2.0" stroke-linejoin="round" stroke-linecap="round" /><polyline points="820.53,463.0 820.53,469.0" stroke="#f4f0ee" fill="none" stroke-width="2.0" stroke-linejoin="round" stroke-linecap="round" /><text fill="#f4f0ee" font-size="13px" font-family="&quot;Helvetica Neue&quot;, &quot;Helvetica&quot;, &quot;Arial&quot;, sans-serif" text-anchor="middle" dominant-baseline="hanging"><tspan x="808.53" y="465.625">LLM Context</tspan><tspan x="808.53" y="481.875">Caches</tspan></text><ellipse cx="805.03" cy="372.5" rx="3.5" ry="3.5" stroke="#f4f0ee" fill="#22c86f" stroke-width="2.0" /><ellipse cx="805.03" cy="390.5" rx="3.5" ry="3.5" stroke="#f4f0ee" fill="#22c86f" stroke-width="2.0" /><ellipse cx="822.03" cy="372.5" rx="3.5" ry="3.5" stroke="#f4f0ee" fill="#22c86f" stroke-width="2.0" /><polyline points="805.03,376.0 805.03,387.0" stroke="#f4f0ee" fill="none" stroke-width="3.0" stroke-linejoin="round" stroke-linecap="round" /><polyline points="805.03,372.5 818.53,372.5" stroke="#f4f0ee" fill="none" stroke-width="3.0" stroke-linejoin="round" stroke-linecap="round" /><text fill="#f4f0ee" font-size="13px" font-family="&quot;Helvetica Neue&quot;, &quot;Helvetica&quot;, &quot;Arial&quot;, sans-serif" text-anchor="middle" dominant-baseline="hanging"><tspan x="808.53" y="395.5">GitOps State</tspan></text><ellipse cx="935.03" cy="302.0" rx="4.5" ry="4.5" stroke="#f4f0ee" fill="#22c86f" stroke-width="2.0" /><polyline points="929.03,309.0 929.03,320.0 940.03,320.0 940.03,309.0" stroke="#f4f0ee" fill="none" stroke-width="2.0" stroke-linejoin="round" stroke-linecap="round" /><ellipse cx="946.03" cy="302.0" rx="4.5" ry="4.5" stroke="#f4f0ee" fill="#22c86f" stroke-width="2.0" /><polyline points="940.03,309.0 940.03,320.0 951.03,320.0 951.03,309.0" stroke="#f4f0ee" fill="none" stroke-width="2.0" stroke-linejoin="round" stroke-linecap="round" /><text fill="#f4f0ee" font-size="13px" font-family="&quot;Helvetica Neue&quot;, &quot;Helvetica&quot;, &quot;Arial&quot;, sans-serif" text-anchor="middle" dominant-baseline="hanging"><tspan x="938.53" y="324.5">User Sessions</tspan></text><ellipse cx="933.53" cy="383.0" rx="3.5" ry="3.5" stroke="#f4f0ee" fill="#22c86f" stroke-width="2.0" /><ellipse cx="952.53" cy="369.0" rx="3.5" ry="3.5" stroke="#f4f0ee" fill="#22c86f" stroke-width="2.0" /><ellipse cx="952.53" cy="397.0" rx="3.5" ry="3.5" stroke="#f4f0ee" fill="#22c86f" stroke-width="2.0" /><polyline points="937.03,383.0 949.03,372.5" stroke="#f4f0ee" fill="none" stroke-width="2.0" stroke-linejoin="round" stroke-linecap="round" /><polyline points="937.03,383.0 949.03,393.5" stroke="#f4f0ee" fill="none" stroke-width="2.0" stroke-linejoin="round" stroke-linecap="round" /><text fill="#f4f0ee" font-size="13px" font-family="&quot;Helvetica Neue&quot;, &quot;Helvetica&quot;, &quot;Arial&quot;, sans-serif" text-anchor="middle" dominant-baseline="hanging"><tspan x="938.53" y="395.5">Graph DB Nodes</tspan></text><ellipse cx="546.6" cy="710.9000000000001" rx="7.2" ry="7.2" stroke="#7ee3d6" fill="#7ee3d6" stroke-width="2.0" /><text fill="#f4f0ee" font-size="17px" font-family="&quot;Helvetica Neue&quot;, &quot;Helvetica&quot;, &quot;Arial&quot;, sans-serif" text-anchor="start" dominant-baseline="hanging" font-weight="bold"><tspan x="572.2" y="704.625">Privacy &amp;</tspan><tspan x="572.2" y="725.875">Ingress Guardrail</tspan></text><text fill="#f4f0ee" font-size="9px" font-family="&quot;Helvetica Neue&quot;, &quot;Helvetica&quot;, &quot;Arial&quot;, sans-serif" text-anchor="start" dominant-baseline="hanging"><tspan x="532.2" y="759.625">Regex &amp; NER scrubbing Token redactor</tspan><tspan x="532.2" y="770.875">Zero PII verified...</tspan></text><polyline points="753.8,717.15 759.4,717.15 762.5999999999999,708.35 766.1999999999999,725.5500000000001 769.4,711.5500000000001 772.5999999999999,717.15 779.4,717.15" stroke="#7ee3d6" fill="none" stroke-width="3.0" stroke-linejoin="round" stroke-linecap="round" /><text fill="#f4f0ee" font-size="18px" font-family="&quot;Helvetica Neue&quot;, &quot;Helvetica&quot;, &quot;Arial&quot;, sans-serif" text-anchor="start" dominant-baseline="hanging" font-weight="bold"><tspan x="792.2" y="702.5">Ingest &amp;</tspan><tspan x="792.2" y="725.0">Decouple</tspan></text><text fill="#f4f0ee" font-size="9px" font-family="&quot;Helvetica Neue&quot;, &quot;Helvetica&quot;, &quot;Arial&quot;, sans-serif" text-anchor="start" dominant-baseline="hanging"><tspan x="752.2" y="752.375">Poll memory queues Parse raw markdown</tspan><tspan x="752.2" y="763.625">Resolve sequence IDs...</tspan></text><rect x="974.6" y="703.75" width="22.4" height="4.0" stroke="#f4f0ee" fill="#7ee3d6" stroke-width="1.5" rx="3.0" ry="3.0" /><rect x="977.0" y="709.35" width="17.6" height="4.0" stroke="#f4f0ee" fill="#7ee3d6" stroke-width="1.5" rx="3.0" ry="3.0" /><rect x="979.4" y="714.95" width="12.8" height="4.0" stroke="#f4f0ee" fill="#7ee3d6" stroke-width="1.5" rx="3.0" ry="3.0" /><text fill="#f4f0ee" font-size="18px" font-family="&quot;Helvetica Neue&quot;, &quot;Helvetica&quot;, &quot;Arial&quot;, sans-serif" text-anchor="start" dominant-baseline="hanging" font-weight="bold"><tspan x="1012.2" y="703.5">Vector</tspan><tspan x="1012.2" y="726.0">Embedding</tspan></text><text fill="#f4f0ee" font-size="9px" font-family="&quot;Helvetica Neue&quot;, &quot;Helvetica&quot;, &quot;Arial&quot;, sans-serif" text-anchor="start" dominant-baseline="hanging"><tspan x="972.2" y="752.375">Chunk long forms Generate embeddings</tspan><tspan x="972.2" y="763.625">Validate dimensions...</tspan></text><polyline points="1193.8,717.15 1201.8,717.15" stroke="#f4f0ee" fill="none" stroke-width="3.0" stroke-linejoin="round" stroke-linecap="round" /><ellipse cx="1205.8" cy="717.15" rx="5.2" ry="4.8" stroke="#f4f0ee" fill="#7ee3d6" stroke-width="3.0" /><polyline points="1211.0,717.15 1219.4,717.15" stroke="#f4f0ee" fill="none" stroke-width="3.0" stroke-linejoin="round" stroke-linecap="round" /><text fill="#f4f0ee" font-size="18px" font-family="&quot;Helvetica Neue&quot;, &quot;Helvetica&quot;, &quot;Arial&quot;, sans-serif" text-anchor="start" dominant-baseline="hanging" font-weight="bold"><tspan x="1232.2" y="713.75">Graph Stitching</tspan></text><text fill="#f4f0ee" font-size="9px" font-family="&quot;Helvetica Neue&quot;, &quot;Helvetica&quot;, &quot;Arial&quot;, sans-serif" text-anchor="start" dominant-baseline="hanging"><tspan x="1192.2" y="752.375">Extract entities Map dependencies Update</tspan><tspan x="1192.2" y="763.625">entity relations...</tspan></text><rect x="1419.4" y="716.75" width="16.0" height="12.0" stroke="#f4f0ee" fill="#7ee3d6" stroke-width="2.0" rx="6.0" ry="6.0" /><polyline points="1422.6,716.75 1422.6,710.35 1432.1999999999998,710.35 1432.1999999999998,716.75" stroke="#f4f0ee" fill="none" stroke-width="3.0" stroke-linejoin="round" stroke-linecap="round" /><ellipse cx="1427.3999999999999" cy="722.35" rx="1.6" ry="1.6" stroke="#f4f0ee" fill="#f4f0ee" stroke-width="1.0" /><text fill="#f4f0ee" font-size="18px" font-family="&quot;Helvetica Neue&quot;, &quot;Helvetica&quot;, &quot;Arial&quot;, sans-serif" text-anchor="start" dominant-baseline="hanging" font-weight="bold"><tspan x="1452.2" y="702.5">State</tspan><tspan x="1452.2" y="725.0">Consensus</tspan></text><text fill="#f4f0ee" font-size="9px" font-family="&quot;Helvetica Neue&quot;, &quot;Helvetica&quot;, &quot;Arial&quot;, sans-serif" text-anchor="start" dominant-baseline="hanging"><tspan x="1412.2" y="750.375">Async lock registry Resolve delta drift</tspan><tspan x="1412.2" y="761.625">Commit state update...</tspan></text><text fill="#f4f0ee" font-size="17px" font-family="&quot;Helvetica Neue&quot;, &quot;Helvetica&quot;, &quot;Arial&quot;, sans-serif" text-anchor="middle" dominant-baseline="hanging" font-weight="bold"><tspan x="160.0" y="1808.25">State Validated?</tspan></text><text fill="#f4f0ee" font-size="12px" font-family="&quot;Helvetica Neue&quot;, &quot;Helvetica&quot;, &quot;Arial&quot;, sans-serif" text-anchor="middle" dominant-baseline="hanging" font-weight="bold"><tspan x="160.0" y="1834.75">Consensus achieved</tspan><tspan x="160.0" y="1849.75">Schema matched</tspan><tspan x="160.0" y="1864.75">Conflict free</tspan></text><polygon points="297.4,1134.5 289.4,1147.3 295.79999999999995,1147.3 294.2,1159.3 302.2,1144.9 295.79999999999995,1144.9 297.4,1134.5" stroke="#7ee3d6" fill="#7ee3d6" stroke-width="2.0" stroke-linejoin="round" stroke-linecap="round" /><text fill="#f4f0ee" font-size="18px" font-family="&quot;Helvetica Neue&quot;, &quot;Helvetica&quot;, &quot;Arial&quot;, sans-serif" text-anchor="start" dominant-baseline="hanging" font-weight="bold"><tspan x="322.2" y="1130.25">Dispatched</tspan><tspan x="322.2" y="1152.75">Context</tspan></text><polygon points="460.73,209.0 452.73,221.8 459.13,221.8 457.53000000000003,233.8 465.53000000000003,219.4 459.13,219.4 460.73,209.0" stroke="#7ee3d6" fill="#7ee3d6" stroke-width="2.0" stroke-linejoin="round" stroke-linecap="round" /><text fill="#f4f0ee" font-size="18px" font-family="&quot;Helvetica Neue&quot;, &quot;Helvetica&quot;, &quot;Arial&quot;, sans-serif" text-anchor="start" dominant-baseline="hanging"><tspan x="485.53" y="204.75">Ephemeral</tspan><tspan x="485.53" y="227.25">Buffers</tspan></text><text fill="#f4f0ee" font-size="9px" font-family="&quot;Helvetica Neue&quot;, &quot;Helvetica&quot;, &quot;Arial&quot;, sans-serif" text-anchor="start" dominant-baseline="hanging"><tspan x="445.53" y="252.625">Redis Stream queues Kafka transaction</tspan><tspan x="445.53" y="263.875">logs In-memory hot keys...</tspan></text><polyline points="454.33000000000004,318.7 448.73,325.09999999999997 454.33000000000004,331.5" stroke="#f4f0ee" fill="none" stroke-width="3.0" stroke-linejoin="round" stroke-linecap="round" /><polyline points="463.93,318.7 469.53000000000003,325.09999999999997 463.93,331.5" stroke="#f4f0ee" fill="none" stroke-width="3.0" stroke-linejoin="round" stroke-linecap="round" /><polyline points="460.72999999999996,316.3 457.53,333.90000000000003" stroke="#7ee3d6" fill="none" stroke-width="3.0" stroke-linejoin="round" stroke-linecap="round" /><text fill="#f4f0ee" font-size="18px" font-family="&quot;Helvetica Neue&quot;, &quot;Helvetica&quot;, &quot;Arial&quot;, sans-serif" text-anchor="start" dominant-baseline="hanging"><tspan x="485.53" y="309.25">Model-Agnostic</tspan><tspan x="485.53" y="331.75">Parsers</tspan></text><text fill="#f4f0ee" font-size="9px" font-family="&quot;Helvetica Neue&quot;, &quot;Helvetica&quot;, &quot;Arial&quot;, sans-serif" text-anchor="start" dominant-baseline="hanging"><tspan x="445.53" y="356.125">Claude XML tags OpenAI JSON schemas</tspan><tspan x="445.53" y="367.375">Markdown execution blocks...</tspan></text><polyline points="451.53,420.0 459.53,428.0 451.53,436.0" stroke="#f4f0ee" fill="none" stroke-width="4.0" stroke-linejoin="round" stroke-linecap="round" /><polyline points="462.33,436.0 470.33,436.0" stroke="#7ee3d6" fill="none" stroke-width="4.0" stroke-linejoin="round" stroke-linecap="round" /><text fill="#f4f0ee" font-size="18px" font-family="&quot;Helvetica Neue&quot;, &quot;Helvetica&quot;, &quot;Arial&quot;, sans-serif" text-anchor="start" dominant-baseline="hanging"><tspan x="485.53" y="413.75">Stream</tspan><tspan x="485.53" y="436.25">Aggregators</tspan></text><text fill="#f4f0ee" font-size="9px" font-family="&quot;Helvetica Neue&quot;, &quot;Helvetica&quot;, &quot;Arial&quot;, sans-serif" text-anchor="start" dominant-baseline="hanging"><tspan x="445.53" y="462.625">Agent token usage logs Exception trace</tspan><tspan x="445.53" y="473.875">states Tool execution histories...</tspan></text><ellipse cx="597.4" cy="1107.6" rx="10.4" ry="3.0" stroke="#f4f0ee" fill="#7ee3d6" stroke-width="2.0" /><polyline points="587.0,1107.6 587.0,1114.0" stroke="#f4f0ee" fill="none" stroke-width="2.0" stroke-linejoin="round" stroke-linecap="round" /><polyline points="607.8,1107.6 607.8,1114.0" stroke="#f4f0ee" fill="none" stroke-width="2.0" stroke-linejoin="round" stroke-linecap="round" /><ellipse cx="597.4" cy="1114.0" rx="10.4" ry="3.0" stroke="#f4f0ee" fill="#7ee3d6" stroke-width="2.0" /><polyline points="587.0,1114.0 587.0,1120.4" stroke="#f4f0ee" fill="none" stroke-width="2.0" stroke-linejoin="round" stroke-linecap="round" /><polyline points="607.8,1114.0 607.8,1120.4" stroke="#f4f0ee" fill="none" stroke-width="2.0" stroke-linejoin="round" stroke-linecap="round" /><ellipse cx="597.4" cy="1120.4" rx="10.4" ry="3.0" stroke="#f4f0ee" fill="#7ee3d6" stroke-width="2.0" /><text fill="#f4f0ee" font-size="18px" font-family="&quot;Helvetica Neue&quot;, &quot;Helvetica&quot;, &quot;Arial&quot;, sans-serif" text-anchor="start" dominant-baseline="hanging"><tspan x="622.2" y="1100.75">System WAL</tspan><tspan x="622.2" y="1123.25">Storage</tspan></text><text fill="#f4f0ee" font-size="9px" font-family="&quot;Helvetica Neue&quot;, &quot;Helvetica&quot;, &quot;Arial&quot;, sans-serif" text-anchor="start" dominant-baseline="hanging"><tspan x="582.2" y="1150.625">Distributed Raft WAL Transactional Raft</tspan><tspan x="582.2" y="1161.875">log Commit snapshot journal...</tspan></text><rect x="589.4" y="997.5" width="16.8" height="13.6" stroke="#f4f0ee" fill="#7ee3d6" stroke-width="2.0" rx="4.0" ry="4.0" /><rect x="586.2" y="1002.3" width="16.8" height="13.6" stroke="#f4f0ee" fill="#7ee3d6" stroke-width="2.0" rx="4.0" ry="4.0" /><polyline points="589.4,1007.1 596.6,1007.1" stroke="#f4f0ee" fill="none" stroke-width="2.0" stroke-linejoin="round" stroke-linecap="round" /><polyline points="589.4,1011.1 599.8,1011.1" stroke="#f4f0ee" fill="none" stroke-width="2.0" stroke-linejoin="round" stroke-linecap="round" /><text fill="#f4f0ee" font-size="16px" font-family="&quot;Helvetica Neue&quot;, &quot;Helvetica&quot;, &quot;Arial&quot;, sans-serif" text-anchor="start" dominant-baseline="hanging"><tspan x="622.2" y="994.75">Blob Engine</tspan></text><text fill="#f4f0ee" font-size="9px" font-family="&quot;Helvetica Neue&quot;, &quot;Helvetica&quot;, &quot;Arial&quot;, sans-serif" text-anchor="start" dominant-baseline="hanging"><tspan x="582.2" y="1035.125">Immutable cold backups Raw system</tspan><tspan x="582.2" y="1046.375">snap dumps LZ4 compression...</tspan></text><ellipse cx="815.8" cy="1007.1" rx="10.4" ry="10.4" stroke="#f4f0ee" fill="#7ee3d6" stroke-width="2.0" /><ellipse cx="815.8" cy="1007.1" rx="4.0" ry="4.0" stroke="#f4f0ee" fill="#f4f0ee" stroke-width="2.0" /><text fill="#f4f0ee" font-size="18px" font-family="&quot;Helvetica Neue&quot;, &quot;Helvetica&quot;, &quot;Arial&quot;, sans-serif" text-anchor="start" dominant-baseline="hanging"><tspan x="842.2" y="991.25">Vector</tspan><tspan x="842.2" y="1013.75">Database</tspan></text><text fill="#f4f0ee" font-size="9px" font-family="&quot;Helvetica Neue&quot;, &quot;Helvetica&quot;, &quot;Arial&quot;, sans-serif" text-anchor="start" dominant-baseline="hanging"><tspan x="802.2" y="1039.125">pgvector storage Dynamic HNSW index</tspan><tspan x="802.2" y="1050.375">Compute cosine similarity...</tspan></text><ellipse cx="807.8" cy="1115.3999999999999" rx="2.8" ry="2.8" stroke="#f4f0ee" fill="#7ee3d6" stroke-width="2.0" /><ellipse cx="823.0" cy="1104.2" rx="2.8" ry="2.8" stroke="#f4f0ee" fill="#7ee3d6" stroke-width="2.0" /><ellipse cx="823.0" cy="1126.6" rx="2.8" ry="2.8" stroke="#f4f0ee" fill="#7ee3d6" stroke-width="2.0" /><polyline points="810.6,1115.4 820.2,1107.0" stroke="#f4f0ee" fill="none" stroke-width="2.0" stroke-linejoin="round" stroke-linecap="round" /><polyline points="810.6,1115.4 820.2,1123.8000000000002" stroke="#f4f0ee" fill="none" stroke-width="2.0" stroke-linejoin="round" stroke-linecap="round" /><text fill="#f4f0ee" font-size="18px" font-family="&quot;Helvetica Neue&quot;, &quot;Helvetica&quot;, &quot;Arial&quot;, sans-serif" text-anchor="start" dominant-baseline="hanging"><tspan x="842.2" y="1100.75">Knowledge</tspan><tspan x="842.2" y="1123.25">Graph</tspan></text><text fill="#f4f0ee" font-size="9px" font-family="&quot;Helvetica Neue&quot;, &quot;Helvetica&quot;, &quot;Arial&quot;, sans-serif" text-anchor="start" dominant-baseline="hanging"><tspan x="802.2" y="1150.625">Neo4j / Memgraph Semantic connections</tspan><tspan x="802.2" y="1161.875">Transitive paths...</tspan></text><text fill="#f4f0ee" font-size="18px" font-family="&quot;Helvetica Neue&quot;, &quot;Helvetica&quot;, &quot;Arial&quot;, sans-serif" text-anchor="start" dominant-baseline="hanging"><tspan x="574.2" y="1208.25">Hybrid Search Engine (HNSW Index + BM25</tspan><tspan x="574.2" y="1230.75">Lexical + Cypher Traversal)</tspan></text><polyline points="656.2,1411.7 675.4000000000001,1411.7" stroke="#f4f0ee" fill="none" stroke-width="2.0" stroke-linejoin="round" stroke-linecap="round" /><rect x="660.2" y="1409.3" width="4.0" height="4.8" stroke="#f4f0ee" fill="#7ee3d6" stroke-width="1.5" rx="2.0" ry="2.0" /><polyline points="656.2,1418.1 675.4000000000001,1418.1" stroke="#f4f0ee" fill="none" stroke-width="2.0" stroke-linejoin="round" stroke-linecap="round" /><rect x="665.8" y="1415.7" width="4.0" height="4.8" stroke="#f4f0ee" fill="#7ee3d6" stroke-width="1.5" rx="2.0" ry="2.0" /><polyline points="656.2,1424.5 675.4000000000001,1424.5" stroke="#f4f0ee" fill="none" stroke-width="2.0" stroke-linejoin="round" stroke-linecap="round" /><rect x="671.4" y="1422.1" width="4.0" height="4.8" stroke="#f4f0ee" fill="#7ee3d6" stroke-width="1.5" rx="2.0" ry="2.0" /><text fill="#f4f0ee" font-size="18px" font-family="&quot;Helvetica Neue&quot;, &quot;Helvetica&quot;, &quot;Arial&quot;, sans-serif" text-anchor="start" dominant-baseline="hanging"><tspan x="692.2" y="1402.25">Dynamic</tspan><tspan x="692.2" y="1424.75">Planner</tspan></text><text fill="#f4f0ee" font-size="9px" font-family="&quot;Helvetica Neue&quot;, &quot;Helvetica&quot;, &quot;Arial&quot;, sans-serif" text-anchor="start" dominant-baseline="hanging"><tspan x="652.2" y="1450.125">Injects real-time context Adapts runbook</tspan><tspan x="652.2" y="1461.375">goals Calculates token budget...</tspan></text><polygon points="665.8,1509.2 676.1999999999999,1514.8 676.1999999999999,1526.0 665.8,1531.6000000000001 655.4,1526.0 655.4,1514.8 665.8,1509.2" stroke="#f4f0ee" fill="none" stroke-width="2.0" stroke-linejoin="round" stroke-linecap="round" /><polyline points="655.4,1514.8 665.8,1520.3999999999999 676.1999999999999,1514.8" stroke="#f4f0ee" fill="none" stroke-width="2.0" stroke-linejoin="round" stroke-linecap="round" /><polyline points="665.8,1520.4 665.8,1531.6000000000001" stroke="#f4f0ee" fill="none" stroke-width="2.0" stroke-linejoin="round" stroke-linecap="round" /><text fill="#f4f0ee" font-size="18px" font-family="&quot;Helvetica Neue&quot;, &quot;Helvetica&quot;, &quot;Arial&quot;, sans-serif" text-anchor="start" dominant-baseline="hanging"><tspan x="692.2" y="1503.75">Ephemeral</tspan><tspan x="692.2" y="1526.25">Tools</tspan></text><text fill="#f4f0ee" font-size="9px" font-family="&quot;Helvetica Neue&quot;, &quot;Helvetica&quot;, &quot;Arial&quot;, sans-serif" text-anchor="start" dominant-baseline="hanging"><tspan x="652.2" y="1551.625">Sandboxed runtimes Short-lived API</tspan><tspan x="652.2" y="1562.875">configurations Local file operations...</tspan></text><ellipse cx="664.1999999999999" cy="1616.3" rx="4.8" ry="4.8" stroke="#f4f0ee" fill="#7ee3d6" stroke-width="2.0" /><polyline points="655.4,1629.1000000000001 655.4,1625.1000000000001 659.4,1622.7 669.0,1622.7 673.0,1625.1000000000001 673.0,1629.1000000000001" stroke="#f4f0ee" fill="none" stroke-width="2.0" stroke-linejoin="round" stroke-linecap="round" /><polyline points="670.6,1616.3 672.6,1618.6999999999998 677.0,1613.1" stroke="#22c86f" fill="none" stroke-width="3.0" stroke-linejoin="round" stroke-linecap="round" /><text fill="#f4f0ee" font-size="18px" font-family="&quot;Helvetica Neue&quot;, &quot;Helvetica&quot;, &quot;Arial&quot;, sans-serif" text-anchor="start" dominant-baseline="hanging"><tspan x="692.2" y="1607.25">Persona</tspan><tspan x="692.2" y="1629.75">Registry</tspan></text><text fill="#f4f0ee" font-size="9px" font-family="&quot;Helvetica Neue&quot;, &quot;Helvetica&quot;, &quot;Arial&quot;, sans-serif" text-anchor="start" dominant-baseline="hanging"><tspan x="652.2" y="1657.125">Cross-agent alignment Historical user</tspan><tspan x="652.2" y="1668.375">biases Global system behaviors...</tspan></text><text fill="#f4f0ee" font-size="47px" font-family="&quot;Helvetica Neue&quot;, &quot;Helvetica&quot;, &quot;Arial&quot;, sans-serif" text-anchor="start" dominant-baseline="hanging" font-weight="bold"><tspan x="45.0" y="23.5">Architecture of the</tspan></text><text fill="#f4f0ee" font-size="43px" font-family="&quot;Helvetica Neue&quot;, &quot;Helvetica&quot;, &quot;Arial&quot;, sans-serif" text-anchor="middle" dominant-baseline="hanging" font-weight="bold"><tspan x="859.0" y="35.5">Cognitive Memory Mesh</tspan></text><text fill="#cfc7c5" font-size="15px" font-family="&quot;Helvetica Neue&quot;, &quot;Helvetica&quot;, &quot;Arial&quot;, sans-serif" text-anchor="start" dominant-baseline="hanging"><tspan x="104.0" y="95.0">Multi-Agent State Synchronization &amp; Graph RAG</tspan></text><text fill="#bd54d3" font-size="24px" font-family="&quot;Helvetica Neue&quot;, &quot;Helvetica&quot;, &quot;Arial&quot;, sans-serif" text-anchor="start" dominant-baseline="hanging" opacity="0.6470588235294118" font-weight="bold"><tspan x="1408.0" y="142.0">@FlowDraft</tspan></text><text fill="#7ee3d6" font-size="24px" font-family="&quot;Helvetica Neue&quot;, &quot;Helvetica&quot;, &quot;Arial&quot;, sans-serif" text-anchor="start" dominant-baseline="hanging" opacity="0.5294117647058824" font-weight="bold"><tspan x="1410.0" y="140.0">@FlowDraft</tspan></text><text fill="#f4f0ee" font-size="24px" font-family="&quot;Helvetica Neue&quot;, &quot;Helvetica&quot;, &quot;Arial&quot;, sans-serif" text-anchor="start" dominant-baseline="hanging" opacity="0.9607843137254902" font-weight="bold"><tspan x="1409.0" y="141.0">@FlowDraft</tspan></text><polyline points="1413.0,179.0 1499.0,179.0" stroke="#5c6265" fill="none" stroke-width="1.0" stroke-linejoin="round" stroke-linecap="round" opacity="0.39215686274509803" /><rect x="960.2" y="580.0" width="200" height="21.0" stroke="#000000" fill="#000000" stroke-width="0" rx="0" ry="0" /><text fill="#f4f0ee" font-size="9px" font-family="&quot;Helvetica Neue&quot;, &quot;Helvetica&quot;, &quot;Arial&quot;, sans-serif" text-anchor="middle" dominant-baseline="hanging"><tspan x="1060.2" y="580.375">Iterate state sync until vector drift &lt; 2% and</tspan><tspan x="1060.2" y="591.625">WAL entries commit to storage blocks</tspan></text><rect x="1420.2" y="580.0" width="200" height="21.0" stroke="#000000" fill="#000000" stroke-width="0" rx="0" ry="0" /><text fill="#f4f0ee" font-size="12px" font-family="&quot;Helvetica Neue&quot;, &quot;Helvetica&quot;, &quot;Arial&quot;, sans-serif" text-anchor="middle" dominant-baseline="hanging"><tspan x="1520.2" y="584.5">Timeout / Consensus recovery path</tspan></text><rect x="482.28" y="109.5" width="102.5" height="21.0" stroke="#000000" fill="#000000" stroke-width="0" rx="0" ry="0" /><text fill="#f4f0ee" font-size="14px" font-family="&quot;Helvetica Neue&quot;, &quot;Helvetica&quot;, &quot;Arial&quot;, sans-serif" text-anchor="middle" dominant-baseline="hanging"><tspan x="533.53" y="113.0">Ingest Events</tspan></text><rect x="769.99" y="1293.5" width="126.0" height="21.0" stroke="#000000" fill="#000000" stroke-width="0" rx="0" ry="0" /><text fill="#f4f0ee" font-size="14px" font-family="&quot;Helvetica Neue&quot;, &quot;Helvetica&quot;, &quot;Arial&quot;, sans-serif" text-anchor="middle" dominant-baseline="hanging"><tspan x="832.99" y="1297.0">Dynamic Compile</tspan></text><rect x="246.75" y="1584.9" width="114.5" height="21.0" stroke="#000000" fill="#000000" stroke-width="0" rx="0" ry="0" /><text fill="#f4f0ee" font-size="14px" font-family="&quot;Helvetica Neue&quot;, &quot;Helvetica&quot;, &quot;Arial&quot;, sans-serif" text-anchor="middle" dominant-baseline="hanging"><tspan x="304.0" y="1588.4">Feedback Loop</tspan></text><rect x="214.0" y="1517.68" width="84.0" height="18.0" stroke="#000000" fill="#000000" stroke-width="0" rx="0" ry="0" /><text fill="#f4f0ee" font-size="14px" font-family="&quot;Helvetica Neue&quot;, &quot;Helvetica&quot;, &quot;Arial&quot;, sans-serif" text-anchor="middle" dominant-baseline="hanging"><tspan x="256.0" y="1519.68">Yes / Pass</tspan></text><rect x="-41.5" y="1007.53" width="115.0" height="21.0" stroke="#000000" fill="#000000" stroke-width="0" rx="0" ry="0" /><text fill="#f4f0ee" font-size="14px" font-family="&quot;Helvetica Neue&quot;, &quot;Helvetica&quot;, &quot;Arial&quot;, sans-serif" text-anchor="middle" dominant-baseline="hanging"><tspan x="16.0" y="1011.03">No / Fail (Retry)</tspan></text></svg>